a1000-p0000.ufo
<glyph name="numbersign" format="1">
  <advance width="548"/>
  <unicode hex="0023"/>
  <outline>
    <contour>
      <point x="126" y="0" type="line"/>
      <point x="161" y="0" type="line"/>
      <point x="221" y="740" type="line"/>
      <point x="187" y="740" type="line"/>
    </contour>
    <contour>
      <point x="58" y="246" type="line"/>
      <point x="489" y="246" type="line"/>
      <point x="489" y="280" type="line"/>
      <point x="58" y="280" type="line"/>
    </contour>
    <contour>
      <point x="58" y="460" type="line"/>
      <point x="490" y="460" type="line"/>
      <point x="490" y="494" type="line"/>
      <point x="58" y="494" type="line"/>
    </contour>
    <contour>
      <point x="313" y="0" type="line"/>
      <point x="348" y="0" type="line"/>
      <point x="408" y="740" type="line"/>
      <point x="374" y="740" type="line"/>
    </contour>
  </outline>
</glyph>
<glyph name="dollar" format="1">
  <advance width="572"/>
  <unicode hex="0024"/>
  <outline>
    <contour>
      <point x="282" y="-150" type="line"/>
      <point x="321" y="-150" type="line"/>
      <point x="321" y="10" type="line"/>
      <point x="282" y="8" type="line"/>
    </contour>
    <contour>
      <point x="273" y="731" type="line"/>
      <point x="312" y="731" type="line"/>
      <point x="312" y="890" type="line"/>
      <point x="273" y="890" type="line"/>
    </contour>
    <component base="S" xOffset="1"/>
  </outline>
</glyph>
<glyph name="parenright" format="1">
  <advance width="277"/>
  <unicode hex="0029"/>
  <outline>
    <contour>
      <point x="63" y="-160" type="line"/>
      <point x="165" y="-14"/>
      <point x="221" y="167"/>
      <point x="221" y="354" type="curve" smooth="yes"/>
      <point x="221" y="541"/>
      <point x="165" y="722"/>
      <point x="63" y="868" type="curve"/>
      <point x="29" y="868" type="line"/>
      <point x="29" y="864" type="line"/>
      <point x="132" y="721"/>
      <point x="187" y="543"/>
      <point x="187" y="354" type="curve" smooth="yes"/>
      <point x="187" y="164"/>
      <point x="132" y="-13"/>
      <point x="29" y="-156" type="curve"/>
      <point x="29" y="-160" type="line"/>
    </contour>
  </outline>
</glyph>
<glyph name="comma" format="1">
  <advance width="211"/>
  <unicode hex="002C"/>
  <outline>
    <contour>
      <point x="72" y="-155" type="line"/>
      <point x="128" y="60" type="line"/>
      <point x="90" y="60" type="line"/>
      <point x="43" y="-145" type="line"/>
    </contour>
  </outline>
</glyph>
<glyph name="period" format="1">
  <advance width="218"/>
  <unicode hex="002E"/>
  <outline>
    <contour>
      <point x="109" y="-1" type="curve" smooth="yes"/>
      <point x="128" y="-1"/>
      <point x="141" y="11"/>
      <point x="141" y="30" type="curve" smooth="yes"/>
      <point x="141" y="49"/>
      <point x="128" y="62"/>
      <point x="109" y="62" type="curve" smooth="yes"/>
      <point x="90" y="62"/>
      <point x="78" y="50"/>
      <point x="78" y="30" type="curve" smooth="yes"/>
      <point x="78" y="11"/>
      <point x="90" y="-1"/>
    </contour>
  </outline>
</glyph>
<glyph name="four" format="1">
  <advance width="596"/>
  <unicode hex="0034"/>
  <outline>
    <contour>
      <point x="47" y="193" type="line"/>
      <point x="562" y="193" type="line"/>
      <point x="562" y="227" type="line"/>
      <point x="76" y="227" type="line"/>
      <point x="76" y="231" type="line"/>
      <point x="305" y="736" type="line"/>
      <point x="305" y="740" type="line"/>
      <point x="283" y="750" type="line"/>
      <point x="279" y="750" type="line"/>
      <point x="30" y="215" type="line"/>
      <point x="30" y="211" type="line"/>
    </contour>
    <contour>
      <point x="405" y="0" type="line"/>
      <point x="439" y="0" type="line"/>
      <point x="439" y="501" type="line"/>
      <point x="418" y="501" type="line"/>
      <point x="405" y="227" type="line"/>
    </contour>
  </outline>
</glyph>
<glyph name="less" format="1">
  <advance width="500"/>
  <unicode hex="003C"/>
  <outline>
    <contour>
      <point x="54" y="362" type="line"/>
      <point x="89" y="362" type="line"/>
      <point x="420" y="508" type="line"/>
      <point x="420" y="546" type="line"/>
      <point x="54" y="382" type="line"/>
    </contour>
    <contour>
      <point x="417" y="188" type="line"/>
      <point x="417" y="226" type="line"/>
      <point x="89" y="372" type="line"/>
      <point x="54" y="372" type="line"/>
      <point x="54" y="352" type="line"/>
    </contour>
  </outline>
</glyph>
<glyph name="G" format="1">
  <advance width="666"/>
  <unicode hex="0047"/>
  <outline>
    <contour>
      <point x="360" y="760" type="move" name="topUC"/>
    </contour>
    <contour>
      <point x="360" y="0" type="move" name="bottom"/>
    </contour>
    <contour>
      <point x="390" y="-7" type="curve" smooth="yes"/>
      <point x="445" y="-7"/>
      <point x="532" y="7"/>
      <point x="591" y="26" type="curve"/>
      <point x="565" y="53" type="line"/>
      <point x="521" y="40"/>
      <point x="435" y="27"/>
      <point x="389" y="27" type="curve" smooth="yes"/>
      <point x="203" y="27"/>
      <point x="97" y="151"/>
      <point x="97" y="369" type="curve" smooth="yes"/>
      <point x="97" y="588"/>
      <point x="209" y="715"/>
      <point x="400" y="715" type="curve" smooth="yes"/>
      <point x="460" y="715"/>
      <point x="497" y="709"/>
      <point x="585" y="686" type="curve"/>
      <point x="585" y="721" type="line"/>
      <point x="514" y="740"/>
      <point x="458" y="749"/>
      <point x="400" y="749" type="curve" smooth="yes"/>
      <point x="181" y="749"/>
      <point x="63" y="615"/>
      <point x="63" y="368" type="curve" smooth="yes"/>
      <point x="63" y="126"/>
      <point x="179" y="-7"/>
    </contour>
    <contour>
      <point x="557" y="24" type="line"/>
      <point x="591" y="26" type="line"/>
      <point x="591" y="376" type="line"/>
      <point x="557" y="376" type="line"/>
    </contour>
  </outline>
</glyph>
<glyph name="H" format="1">
  <advance width="779"/>
  <unicode hex="0048"/>
  <outline>
    <contour>
      <point x="382" y="760" type="move" name="topUC"/>
    </contour>
    <contour>
      <point x="402" y="0" type="move" name="bottom"/>
    </contour>
    <contour>
      <point x="106" y="0" type="line"/>
      <point x="140" y="0" type="line"/>
      <point x="140" y="363" type="line"/>
      <point x="639" y="363" type="line"/>
      <point x="639" y="0" type="line"/>
      <point x="673" y="0" type="line"/>
      <point x="673" y="740" type="line"/>
      <point x="639" y="740" type="line"/>
      <point x="639" y="397" type="line"/>
      <point x="140" y="397" type="line"/>
      <point x="140" y="740" type="line"/>
      <point x="106" y="740" type="line"/>
    </contour>
  </outline>
</glyph>
<glyph name="P" format="1">
  <advance width="647"/>
  <unicode hex="0050"/>
  <outline>
    <contour>
      <point x="284" y="252" type="curve" smooth="yes"/>
      <point x="508" y="252"/>
      <point x="602" y="326"/>
      <point x="602" y="501" type="curve" smooth="yes"/>
      <point x="602" y="674"/>
      <point x="502" y="750"/>
      <point x="274" y="750" type="curve" smooth="yes"/>
      <point x="221" y="750"/>
      <point x="164" y="745"/>
      <point x="106" y="735" type="curve"/>
      <point x="106" y="268" type="line"/>
      <point x="185" y="257"/>
      <point x="239" y="252"/>
    </contour>
    <contour>
      <point x="284" y="286" type="curve" smooth="yes"/>
      <point x="233" y="286"/>
      <point x="160" y="292"/>
      <point x="140" y="298" type="curve"/>
      <point x="140" y="706" type="line"/>
      <point x="173" y="712"/>
      <point x="227" y="716"/>
      <point x="273" y="716" type="curve" smooth="yes"/>
      <point x="480" y="716"/>
      <point x="568" y="652"/>
      <point x="568" y="501" type="curve" smooth="yes"/>
      <point x="568" y="346"/>
      <point x="489" y="286"/>
    </contour>
    <contour>
      <point x="106" y="0" type="line"/>
      <point x="140" y="0" type="line"/>
      <point x="140" y="690" type="line"/>
      <point x="106" y="690" type="line"/>
    </contour>
  </outline>
</glyph>
<glyph name="Q" format="1">
  <advance width="756"/>
  <unicode hex="0051"/>
  <outline>
    <contour>
      <point x="675" y="-94" type="curve"/>
      <point x="682" y="-56" type="line"/>
      <point x="570" y="-50"/>
      <point x="477" y="-36"/>
      <point x="367" y="-8" type="curve"/>
      <point x="367" y="-4" type="line"/>
      <point x="576" y="-4"/>
      <point x="694" y="130"/>
      <point x="694" y="369" type="curve" smooth="yes"/>
      <point x="694" y="611"/>
      <point x="579" y="750"/>
      <point x="377" y="750" type="curve" smooth="yes"/>
      <point x="175" y="750"/>
      <point x="60" y="611"/>
      <point x="60" y="369" type="curve" smooth="yes"/>
      <point x="60" y="73"/>
      <point x="210" y="-40"/>
    </contour>
    <contour>
      <point x="377" y="24" type="curve" smooth="yes"/>
      <point x="199" y="24"/>
      <point x="94" y="152"/>
      <point x="94" y="369" type="curve" smooth="yes"/>
      <point x="94" y="589"/>
      <point x="198" y="716"/>
      <point x="377" y="716" type="curve" smooth="yes"/>
      <point x="556" y="716"/>
      <point x="660" y="589"/>
      <point x="660" y="369" type="curve" smooth="yes"/>
      <point x="660" y="154"/>
      <point x="554" y="24"/>
    </contour>
  </outline>
</glyph>
<glyph name="S" format="1">
  <advance width="573"/>
  <unicode hex="0053"/>
  <outline>
    <contour>
      <point x="293" y="760" type="move" name="topUC"/>
    </contour>
    <contour>
      <point x="303" y="0" type="move" name="bottom"/>
    </contour>
    <contour>
      <point x="270" y="-10" type="curve" smooth="yes"/>
      <point x="433" y="-10"/>
      <point x="526" y="59"/>
      <point x="526" y="180" type="curve" smooth="yes"/>
      <point x="526" y="328"/>
      <point x="410" y="360"/>
      <point x="299" y="392" type="curve" smooth="yes"/>
      <point x="150" y="434"/>
      <point x="102" y="478"/>
      <point x="102" y="567" type="curve" smooth="yes"/>
      <point x="102" y="661"/>
      <point x="182" y="724"/>
      <point x="305" y="724" type="curve" smooth="yes"/>
      <point x="358" y="724"/>
      <point x="426" y="715"/>
      <point x="488" y="699" type="curve"/>
      <point x="488" y="734" type="line"/>
      <point x="425" y="749"/>
      <point x="357" y="758"/>
      <point x="305" y="758" type="curve" smooth="yes"/>
      <point x="162" y="758"/>
      <point x="66" y="681"/>
      <point x="66" y="567" type="curve" smooth="yes"/>
      <point x="66" y="459"/>
      <point x="122" y="405"/>
      <point x="285" y="359" type="curve" smooth="yes"/>
      <point x="389" y="329"/>
      <point x="490" y="302"/>
      <point x="490" y="180" type="curve" smooth="yes"/>
      <point x="490" y="81"/>
      <point x="408" y="24"/>
      <point x="274" y="24" type="curve" smooth="yes"/>
      <point x="212" y="24"/>
      <point x="126" y="36"/>
      <point x="50" y="54" type="curve"/>
      <point x="50" y="20" type="line"/>
      <point x="128" y="1"/>
      <point x="209" y="-10"/>
    </contour>
  </outline>
</glyph>
<glyph name="V" format="1">
  <advance width="677"/>
  <unicode hex="0056"/>
  <outline>
    <contour>
      <point x="314" y="0" type="line"/>
      <point x="363" y="0" type="line"/>
      <point x="662" y="740" type="line"/>
      <point x="625" y="740" type="line"/>
      <point x="397" y="177" type="line"/>
      <point x="339" y="36" type="line"/>
      <point x="337" y="36" type="line"/>
      <point x="279" y="177" type="line"/>
      <point x="52" y="740" type="line"/>
      <point x="15" y="740" type="line"/>
    </contour>
  </outline>
</glyph>
<glyph name="Y" format="1">
  <advance width="610"/>
  <unicode hex="0059"/>
  <outline>
    <contour>
      <point x="305" y="760" type="move" name="topUC"/>
    </contour>
    <contour>
      <point x="288" y="0" type="line"/>
      <point x="322" y="0" type="line"/>
      <point x="322" y="257" type="line"/>
      <point x="599" y="740" type="line"/>
      <point x="560" y="740" type="line"/>
      <point x="338" y="353" type="line"/>
      <point x="307" y="295" type="line"/>
      <point x="303" y="295" type="line"/>
      <point x="272" y="353" type="line"/>
      <point x="50" y="740" type="line"/>
      <point x="11" y="740" type="line"/>
      <point x="288" y="257" type="line"/>
    </contour>
  </outline>
</glyph>
<glyph name="bracketleft" format="1">
  <advance width="302"/>
  <unicode hex="005B"/>
  <outline>
    <contour>
      <point x="100" y="-160" type="line"/>
      <point x="264" y="-160" type="line"/>
      <point x="264" y="-126" type="line"/>
      <point x="134" y="-126" type="line"/>
      <point x="134" y="834" type="line"/>
      <point x="264" y="834" type="line"/>
      <point x="264" y="868" type="line"/>
      <point x="100" y="868" type="line"/>
    </contour>
  </outline>
</glyph>
<glyph name="backslash" format="1">
  <advance width="381"/>
  <unicode hex="005C"/>
  <outline>
    <contour>
      <point x="310" y="-120" type="line"/>
      <point x="344" y="-120" type="line"/>
      <point x="70" y="740" type="line"/>
      <point x="36" y="740" type="line"/>
    </contour>
  </outline>
</glyph>
<glyph name="a" format="1">
  <advance width="523"/>
  <unicode hex="0061"/>
  <note>
    590,0.18,0.05,0
  </note>
  <outline>
    <contour>
      <point x="263" y="600" type="move" name="top"/>
    </contour>
    <contour>
      <point x="438" y="0" type="move" name="ogonek"/>
    </contour>
    <contour>
      <point x="192" y="-5" type="curve" smooth="yes"/>
      <point x="248" y="-5"/>
      <point x="317" y="20"/>
      <point x="400" y="70" type="curve"/>
      <point x="404" y="70" type="line"/>
      <point x="410" y="0" type="line"/>
      <point x="438" y="0" type="line"/>
      <point x="438" y="370" type="line" smooth="yes"/>
      <point x="438" y="490"/>
      <point x="381" y="544"/>
      <point x="253" y="544" type="curve" smooth="yes"/>
      <point x="200" y="544"/>
      <point x="154" y="539"/>
      <point x="82" y="526" type="curve"/>
      <point x="86" y="492" type="line"/>
      <point x="156" y="505"/>
      <point x="201" y="510"/>
      <point x="253" y="510" type="curve" smooth="yes"/>
      <point x="366" y="510"/>
      <point x="404" y="472"/>
      <point x="404" y="362" type="curve" smooth="yes"/>
      <point x="404" y="106" type="line"/>
      <point x="322" y="54"/>
      <point x="252" y="29"/>
      <point x="192" y="29" type="curve" smooth="yes"/>
      <point x="119" y="29"/>
      <point x="84" y="61"/>
      <point x="84" y="127" type="curve" smooth="yes"/>
      <point x="84" y="215"/>
      <point x="130" y="250"/>
      <point x="267" y="263" type="curve" smooth="yes"/>
      <point x="435" y="279" type="line"/>
      <point x="427" y="308" type="line"/>
      <point x="261" y="293" type="line" smooth="yes"/>
      <point x="112" y="279"/>
      <point x="50" y="230"/>
      <point x="50" y="127" type="curve" smooth="yes"/>
      <point x="50" y="39"/>
      <point x="97" y="-5"/>
    </contour>
  </outline>
</glyph>
<glyph name="b" format="1">
  <advance width="604"/>
  <unicode hex="0062"/>
  <outline>
    <contour>
      <point x="290" y="-10" type="curve" smooth="yes"/>
      <point x="441" y="-10"/>
      <point x="546" y="75"/>
      <point x="546" y="270" type="curve" smooth="yes"/>
      <point x="546" y="465"/>
      <point x="461" y="550"/>
      <point x="310" y="550" type="curve" smooth="yes"/>
      <point x="230" y="550"/>
      <point x="169" y="523"/>
      <point x="124" y="475" type="curve"/>
      <point x="124" y="808" type="line"/>
      <point x="90" y="808" type="line"/>
      <point x="90" y="5" type="line"/>
      <point x="145" y="-3"/>
      <point x="225" y="-10"/>
    </contour>
    <contour>
      <point x="290" y="24" type="curve" smooth="yes"/>
      <point x="226" y="24"/>
      <point x="164" y="30"/>
      <point x="124" y="35" type="curve"/>
      <point x="124" y="386" type="line" smooth="yes"/>
      <point x="124" y="464"/>
      <point x="219" y="516"/>
      <point x="310" y="516" type="curve" smooth="yes"/>
      <point x="444" y="516"/>
      <point x="510" y="446"/>
      <point x="510" y="270" type="curve" smooth="yes"/>
      <point x="510" y="98"/>
      <point x="427" y="24"/>
    </contour>
  </outline>
</glyph>
<glyph name="d" format="1">
  <advance width="604"/>
  <unicode hex="0064"/>
  <outline>
    <contour>
      <point x="616" y="808" type="move" name="caronalt"/>
    </contour>
    <contour>
      <point x="290" y="0" type="move" name="bottom"/>
    </contour>
    <contour>
      <point x="294" y="-10" type="curve" smooth="yes"/>
      <point x="374" y="-10"/>
      <point x="435" y="19"/>
      <point x="476" y="70" type="curve"/>
      <point x="481" y="70" type="line"/>
      <point x="485" y="0" type="line"/>
      <point x="514" y="0" type="line"/>
      <point x="514" y="808" type="line"/>
      <point x="480" y="808" type="line"/>
      <point x="480" y="538" type="line"/>
      <point x="439" y="541"/>
      <point x="379" y="550"/>
      <point x="314" y="550" type="curve" smooth="yes"/>
      <point x="163" y="550"/>
      <point x="58" y="465"/>
      <point x="58" y="270" type="curve" smooth="yes"/>
      <point x="58" y="75"/>
      <point x="143" y="-10"/>
    </contour>
    <contour>
      <point x="294" y="24" type="curve" smooth="yes"/>
      <point x="160" y="24"/>
      <point x="94" y="94"/>
      <point x="94" y="270" type="curve" smooth="yes"/>
      <point x="94" y="442"/>
      <point x="177" y="516"/>
      <point x="314" y="516" type="curve" smooth="yes"/>
      <point x="378" y="516"/>
      <point x="440" y="509"/>
      <point x="480" y="504" type="curve"/>
      <point x="480" y="165" type="line" smooth="yes"/>
      <point x="480" y="80"/>
      <point x="387" y="24"/>
    </contour>
  </outline>
</glyph>
<glyph name="g" format="1">
  <advance width="604"/>
  <unicode hex="0067"/>
  <outline>
    <contour>
      <point x="313" y="600" type="move" name="top"/>
    </contour>
    <contour>
      <point x="262" y="-219" type="curve" smooth="yes"/>
      <point x="393" y="-219"/>
      <point x="514" y="-177"/>
      <point x="514" y="41" type="curve" smooth="yes"/>
      <point x="514" y="532" type="line"/>
      <point x="468" y="542"/>
      <point x="378" y="550"/>
      <point x="314" y="550" type="curve" smooth="yes"/>
      <point x="163" y="550"/>
      <point x="58" y="465"/>
      <point x="58" y="270" type="curve" smooth="yes"/>
      <point x="58" y="75"/>
      <point x="143" y="-10"/>
      <point x="294" y="-10" type="curve" smooth="yes"/>
      <point x="374" y="-10"/>
      <point x="435" y="19"/>
      <point x="476" y="70" type="curve"/>
      <point x="480" y="70" type="line"/>
      <point x="480" y="43" type="line" smooth="yes"/>
      <point x="480" y="-134"/>
      <point x="391" y="-185"/>
      <point x="267" y="-185" type="curve" smooth="yes"/>
      <point x="212" y="-185"/>
      <point x="152" y="-174"/>
      <point x="97" y="-160" type="curve"/>
      <point x="94" y="-195" type="line"/>
      <point x="146" y="-209"/>
      <point x="205" y="-219"/>
    </contour>
    <contour>
      <point x="294" y="24" type="curve" smooth="yes"/>
      <point x="160" y="24"/>
      <point x="94" y="94"/>
      <point x="94" y="270" type="curve" smooth="yes"/>
      <point x="94" y="442"/>
      <point x="177" y="516"/>
      <point x="314" y="516" type="curve" smooth="yes"/>
      <point x="378" y="516"/>
      <point x="440" y="509"/>
      <point x="480" y="504" type="curve"/>
      <point x="480" y="165" type="line" smooth="yes"/>
      <point x="480" y="80"/>
      <point x="387" y="24"/>
    </contour>
  </outline>
</glyph>
<glyph name="s" format="1">
  <advance width="458"/>
  <unicode hex="0073"/>
  <outline>
    <contour>
      <point x="226" y="600" type="move" name="top"/>
    </contour>
    <contour>
      <point x="233" y="0" type="move" name="bottom"/>
    </contour>
    <contour>
      <point x="224" y="-10" type="curve" smooth="yes"/>
      <point x="338" y="-10"/>
      <point x="408" y="47"/>
      <point x="408" y="140" type="curve" smooth="yes"/>
      <point x="408" y="253"/>
      <point x="324" y="276"/>
      <point x="243" y="294" type="curve" smooth="yes"/>
      <point x="168" y="311"/>
      <point x="96" y="327"/>
      <point x="96" y="411" type="curve" smooth="yes"/>
      <point x="96" y="481"/>
      <point x="149" y="519"/>
      <point x="246" y="519" type="curve" smooth="yes"/>
      <point x="284" y="519"/>
      <point x="317" y="514"/>
      <point x="384" y="499" type="curve"/>
      <point x="388" y="533" type="line"/>
      <point x="311" y="549"/>
      <point x="285" y="553"/>
      <point x="246" y="553" type="curve" smooth="yes"/>
      <point x="131" y="553"/>
      <point x="61" y="500"/>
      <point x="61" y="411" type="curve" smooth="yes"/>
      <point x="61" y="297"/>
      <point x="153" y="279"/>
      <point x="237" y="261" type="curve" smooth="yes"/>
      <point x="308" y="246"/>
      <point x="373" y="225"/>
      <point x="373" y="140" type="curve" smooth="yes"/>
      <point x="373" y="66"/>
      <point x="320" y="24"/>
      <point x="224" y="24" type="curve" smooth="yes"/>
      <point x="173" y="24"/>
      <point x="115" y="32"/>
      <point x="53" y="48" type="curve"/>
      <point x="53" y="14" type="line"/>
      <point x="147" y="-5"/>
      <point x="181" y="-10"/>
    </contour>
  </outline>
</glyph>
<glyph name="t" format="1">
  <advance width="384"/>
  <unicode hex="0074"/>
  <outline>
    <contour>
      <point x="369" y="662" type="move" name="caronalt"/>
    </contour>
    <contour>
      <point x="265" y="0" type="move" name="bottom"/>
    </contour>
    <contour>
      <point x="283" y="-7" type="curve" smooth="yes"/>
      <point x="309" y="-7"/>
      <point x="338" y="-3"/>
      <point x="371" y="5" type="curve"/>
      <point x="371" y="39" type="line"/>
      <point x="339" y="30"/>
      <point x="311" y="26"/>
      <point x="287" y="26" type="curve" smooth="yes"/>
      <point x="216" y="26"/>
      <point x="180" y="64"/>
      <point x="180" y="139" type="curve" smooth="yes"/>
      <point x="180" y="506" type="line"/>
      <point x="361" y="506" type="line"/>
      <point x="361" y="540" type="line"/>
      <point x="180" y="540" type="line"/>
      <point x="180" y="664" type="line"/>
      <point x="151" y="659" type="line"/>
      <point x="146" y="540" type="line"/>
      <point x="16" y="540" type="line"/>
      <point x="16" y="506" type="line"/>
      <point x="146" y="506" type="line"/>
      <point x="146" y="133" type="line" smooth="yes"/>
      <point x="146" y="41"/>
      <point x="193" y="-7"/>
    </contour>
  </outline>
</glyph>
<glyph name="u" format="1">
  <advance width="607"/>
  <unicode hex="0075"/>
  <outline>
    <contour>
      <point x="297" y="600" type="move" name="top"/>
    </contour>
    <contour>
      <point x="517" y="0" type="move" name="ogonek"/>
    </contour>
    <contour>
      <point x="292" y="0" type="move" name="bottom"/>
    </contour>
    <contour>
      <point x="214" y="-10" type="curve" smooth="yes"/>
      <point x="299" y="-10"/>
      <point x="345" y="15"/>
      <point x="481" y="71" type="curve"/>
      <point x="485" y="71" type="line"/>
      <point x="490" y="0" type="line"/>
      <point x="517" y="0" type="line"/>
      <point x="517" y="540" type="line"/>
      <point x="483" y="540" type="line"/>
      <point x="483" y="106" type="line"/>
      <point x="379" y="62"/>
      <point x="305" y="25"/>
      <point x="219" y="25" type="curve" smooth="yes"/>
      <point x="150" y="25"/>
      <point x="120" y="64"/>
      <point x="120" y="153" type="curve" smooth="yes"/>
      <point x="120" y="540" type="line"/>
      <point x="86" y="540" type="line"/>
      <point x="86" y="138" type="line" smooth="yes"/>
      <point x="86" y="40"/>
      <point x="129" y="-10"/>
    </contour>
  </outline>
</glyph>
<glyph name="w" format="1">
  <advance width="795"/>
  <unicode hex="0077"/>
  <outline>
    <contour>
      <point x="396" y="600" type="move" name="top"/>
    </contour>
    <contour>
      <point x="193" y="0" type="line"/>
      <point x="237" y="0" type="line"/>
      <point x="371" y="421" type="line"/>
      <point x="394" y="504" type="line"/>
      <point x="398" y="504" type="line"/>
      <point x="422" y="421" type="line"/>
      <point x="564" y="0" type="line"/>
      <point x="608" y="0" type="line"/>
      <point x="758" y="532" type="line"/>
      <point x="758" y="540" type="line"/>
      <point x="725" y="540" type="line"/>
      <point x="609" y="124" type="line"/>
      <point x="587" y="39" type="line"/>
      <point x="583" y="39" type="line"/>
      <point x="556" y="124" type="line"/>
      <point x="417" y="540" type="line"/>
      <point x="374" y="540" type="line"/>
      <point x="242" y="124" type="line"/>
      <point x="217" y="39" type="line"/>
      <point x="213" y="39" type="line"/>
      <point x="190" y="124" type="line"/>
      <point x="66" y="540" type="line"/>
      <point x="33" y="540" type="line"/>
      <point x="33" y="532" type="line"/>
    </contour>
  </outline>
</glyph>
<glyph name="x" format="1">
  <advance width="535"/>
  <unicode hex="0078"/>
  <outline>
    <contour>
      <point x="20" y="0" type="line"/>
      <point x="54" y="0" type="line"/>
      <point x="217" y="195" type="line"/>
      <point x="264" y="255" type="line"/>
      <point x="268" y="255" type="line"/>
      <point x="317" y="195" type="line"/>
      <point x="481" y="0" type="line"/>
      <point x="515" y="0" type="line"/>
      <point x="515" y="12" type="line"/>
      <point x="291" y="278" type="line"/>
      <point x="503" y="533" type="line"/>
      <point x="503" y="540" type="line"/>
      <point x="464" y="540" type="line"/>
      <point x="312" y="356" type="line"/>
      <point x="271" y="304" type="line"/>
      <point x="267" y="304" type="line"/>
      <point x="226" y="356" type="line"/>
      <point x="71" y="540" type="line"/>
      <point x="32" y="540" type="line"/>
      <point x="32" y="533" type="line"/>
      <point x="244" y="281" type="line"/>
      <point x="20" y="12" type="line"/>
    </contour>
  </outline>
</glyph>
<glyph name="z" format="1">
  <advance width="472"/>
  <unicode hex="007A"/>
  <outline>
    <contour>
      <point x="229" y="600" type="move" name="top"/>
    </contour>
    <contour>
      <point x="236" y="0" type="move" name="bottom"/>
    </contour>
    <contour>
      <point x="42" y="1" type="line"/>
      <point x="431" y="1" type="line"/>
      <point x="431" y="35" type="line"/>
      <point x="93" y="35" type="line"/>
      <point x="93" y="39" type="line"/>
      <point x="421" y="518" type="line"/>
      <point x="421" y="540" type="line"/>
      <point x="51" y="540" type="line"/>
      <point x="51" y="506" type="line"/>
      <point x="366" y="506" type="line"/>
      <point x="366" y="502" type="line"/>
      <point x="42" y="28" type="line"/>
    </contour>
  </outline>
</glyph>
<glyph name="braceright" format="1">
  <advance width="373"/>
  <unicode hex="007D"/>
  <outline>
    <contour>
      <point x="330" y="375" type="line"/>
      <point x="283" y="375"/>
      <point x="249" y="413"/>
      <point x="249" y="488" type="curve" smooth="yes"/>
      <point x="249" y="741" type="line" smooth="yes"/>
      <point x="249" y="833"/>
      <point x="222" y="868"/>
      <point x="142" y="868" type="curve" smooth="yes"/>
      <point x="117" y="868"/>
      <point x="50" y="865"/>
      <point x="38" y="863" type="curve"/>
      <point x="38" y="834" type="line"/>
      <point x="170" y="834" type="line" smooth="yes"/>
      <point x="202" y="834"/>
      <point x="215" y="821"/>
      <point x="215" y="792" type="curve" smooth="yes"/>
      <point x="215" y="480" type="line" smooth="yes"/>
      <point x="215" y="418"/>
      <point x="242" y="363"/>
      <point x="292" y="354" type="curve"/>
      <point x="242" y="347"/>
      <point x="215" y="293"/>
      <point x="215" y="231" type="curve" smooth="yes"/>
      <point x="215" y="-84" type="line" smooth="yes"/>
      <point x="215" y="-113"/>
      <point x="202" y="-126"/>
      <point x="170" y="-126" type="curve" smooth="yes"/>
      <point x="38" y="-126" type="line"/>
      <point x="38" y="-155" type="line"/>
      <point x="50" y="-157"/>
      <point x="115" y="-160"/>
      <point x="140" y="-160" type="curve" smooth="yes"/>
      <point x="220" y="-160"/>
      <point x="249" y="-125"/>
      <point x="249" y="-33" type="curve" smooth="yes"/>
      <point x="249" y="223" type="line" smooth="yes"/>
      <point x="249" y="298"/>
      <point x="283" y="335"/>
      <point x="330" y="335" type="curve"/>
    </contour>
  </outline>
</glyph>
<glyph name="asciitilde" format="1">
  <advance width="658"/>
  <unicode hex="007E"/>
  <outline>
    <contour>
      <point x="102" y="273" type="line"/>
      <point x="161" y="322"/>
      <point x="198" y="339"/>
      <point x="242" y="339" type="curve" smooth="yes"/>
      <point x="296" y="339"/>
      <point x="336" y="264"/>
      <point x="427" y="264" type="curve" smooth="yes"/>
      <point x="484" y="264"/>
      <point x="547" y="298"/>
      <point x="577" y="344" type="curve"/>
      <point x="548" y="360" type="line"/>
      <point x="531" y="326"/>
      <point x="475" y="298"/>
      <point x="427" y="298" type="curve" smooth="yes"/>
      <point x="358" y="298"/>
      <point x="323" y="373"/>
      <point x="242" y="373" type="curve" smooth="yes"/>
      <point x="185" y="373"/>
      <point x="146" y="354"/>
      <point x="82" y="297" type="curve"/>
    </contour>
  </outline>
</glyph>
<glyph name="cent" format="1">
  <advance width="499"/>
  <unicode hex="00A2"/>
  <outline>
    <contour>
      <point x="279" y="-120" type="line"/>
      <point x="313" y="-120" type="line"/>
      <point x="313" y="9" type="line"/>
      <point x="279" y="9" type="line"/>
    </contour>
    <contour>
      <point x="279" y="529" type="line"/>
      <point x="313" y="529" type="line"/>
      <point x="313" y="660" type="line"/>
      <point x="279" y="660" type="line"/>
    </contour>
    <component base="c" xOffset="2"/>
  </outline>
</glyph>
<glyph name="sterling" format="1">
  <advance width="634"/>
  <unicode hex="00A3"/>
  <outline>
    <contour>
      <point x="58" y="0" type="line"/>
      <point x="564" y="0" type="line"/>
      <point x="564" y="34" type="line"/>
      <point x="260" y="34" type="line"/>
      <point x="260" y="528" type="line" smooth="yes"/>
      <point x="260" y="658"/>
      <point x="301" y="710"/>
      <point x="415" y="710" type="curve" smooth="yes"/>
      <point x="454" y="710"/>
      <point x="507" y="701"/>
      <point x="567" y="683" type="curve"/>
      <point x="577" y="715" type="line"/>
      <point x="512" y="735"/>
      <point x="457" y="744"/>
      <point x="414" y="744" type="curve" smooth="yes"/>
      <point x="276" y="744"/>
      <point x="226" y="675"/>
      <point x="226" y="528" type="curve" smooth="yes"/>
      <point x="226" y="34" type="line"/>
      <point x="58" y="34" type="line"/>
    </contour>
    <contour>
      <point x="58" y="349" type="line"/>
      <point x="490" y="349" type="line"/>
      <point x="490" y="383" type="line"/>
      <point x="58" y="383" type="line"/>
    </contour>
  </outline>
</glyph>
<glyph name="currency" format="1">
  <advance width="636"/>
  <unicode hex="00A4"/>
  <outline>
    <contour>
      <point x="145" y="370" type="curve" smooth="yes"/>
      <point x="145" y="260"/>
      <point x="214" y="187"/>
      <point x="318" y="187" type="curve" smooth="yes"/>
      <point x="421" y="187"/>
      <point x="490" y="260"/>
      <point x="490" y="370" type="curve" smooth="yes"/>
      <point x="490" y="479"/>
      <point x="420" y="552"/>
      <point x="317" y="552" type="curve" smooth="yes"/>
      <point x="213" y="552"/>
      <point x="145" y="479"/>
    </contour>
    <contour>
      <point x="179" y="370" type="curve" smooth="yes"/>
      <point x="179" y="463"/>
      <point x="235" y="518"/>
      <point x="318" y="518" type="curve" smooth="yes"/>
      <point x="407" y="518"/>
      <point x="456" y="457"/>
      <point x="456" y="370" type="curve" smooth="yes"/>
      <point x="456" y="275"/>
      <point x="401" y="221"/>
      <point x="318" y="221" type="curve" smooth="yes"/>
      <point x="235" y="221"/>
      <point x="179" y="276"/>
    </contour>
    <contour>
      <point x="70" y="587" type="line"/>
      <point x="125" y="534" type="line"/>
      <point x="195" y="480" type="line"/>
      <point x="208" y="492" type="line"/>
      <point x="154" y="562" type="line"/>
      <point x="100" y="618" type="line"/>
    </contour>
    <contour>
      <point x="100" y="122" type="line"/>
      <point x="154" y="178" type="line"/>
      <point x="203" y="240" type="line"/>
      <point x="186" y="253" type="line"/>
      <point x="125" y="206" type="line"/>
      <point x="70" y="153" type="line"/>
    </contour>
    <contour>
      <point x="566" y="153" type="line"/>
      <point x="510" y="206" type="line"/>
      <point x="447" y="255" type="line"/>
      <point x="433" y="240" type="line"/>
      <point x="482" y="178" type="line"/>
      <point x="535" y="122" type="line"/>
    </contour>
    <contour>
      <point x="535" y="618" type="line"/>
      <point x="482" y="562" type="line"/>
      <point x="440" y="509" type="line"/>
      <point x="447" y="485" type="line"/>
      <point x="510" y="534" type="line"/>
      <point x="566" y="587" type="line"/>
    </contour>
  </outline>
</glyph>
<glyph name="section" format="1">
  <advance width="489"/>
  <unicode hex="00A7"/>
  <outline>
    <contour>
      <point x="239" y="-10" type="curve" smooth="yes"/>
      <point x="353" y="-10"/>
      <point x="423" y="47"/>
      <point x="423" y="140" type="curve" smooth="yes"/>
      <point x="423" y="190"/>
      <point x="407" y="222"/>
      <point x="381" y="244" type="curve"/>
      <point x="408" y="270"/>
      <point x="423" y="305"/>
      <point x="423" y="348" type="curve" smooth="yes"/>
      <point x="423" y="461"/>
      <point x="339" y="484"/>
      <point x="258" y="502" type="curve" smooth="yes"/>
      <point x="183" y="519"/>
      <point x="111" y="535"/>
      <point x="111" y="619" type="curve" smooth="yes"/>
      <point x="111" y="689"/>
      <point x="164" y="727"/>
      <point x="261" y="727" type="curve" smooth="yes"/>
      <point x="299" y="727"/>
      <point x="332" y="722"/>
      <point x="399" y="707" type="curve"/>
      <point x="403" y="741" type="line"/>
      <point x="326" y="757"/>
      <point x="300" y="761"/>
      <point x="261" y="761" type="curve" smooth="yes"/>
      <point x="146" y="761"/>
      <point x="76" y="708"/>
      <point x="76" y="619" type="curve" smooth="yes"/>
      <point x="76" y="567"/>
      <point x="95" y="535"/>
      <point x="123" y="514" type="curve"/>
      <point x="93" y="490"/>
      <point x="76" y="455"/>
      <point x="76" y="411" type="curve" smooth="yes"/>
      <point x="76" y="297"/>
      <point x="168" y="279"/>
      <point x="252" y="261" type="curve" smooth="yes"/>
      <point x="323" y="246"/>
      <point x="388" y="225"/>
      <point x="388" y="140" type="curve" smooth="yes"/>
      <point x="388" y="66"/>
      <point x="335" y="24"/>
      <point x="239" y="24" type="curve" smooth="yes"/>
      <point x="188" y="24"/>
      <point x="130" y="32"/>
      <point x="68" y="48" type="curve"/>
      <point x="68" y="14" type="line"/>
      <point x="162" y="-5"/>
      <point x="196" y="-10"/>
    </contour>
    <contour>
      <point x="351" y="264" type="curve"/>
      <point x="323" y="278"/>
      <point x="290" y="286"/>
      <point x="258" y="294" type="curve" smooth="yes"/>
      <point x="183" y="311"/>
      <point x="111" y="327"/>
      <point x="111" y="411" type="curve" smooth="yes"/>
      <point x="111" y="449"/>
      <point x="126" y="477"/>
      <point x="156" y="495" type="curve"/>
      <point x="185" y="482"/>
      <point x="219" y="476"/>
      <point x="252" y="469" type="curve" smooth="yes"/>
      <point x="323" y="454"/>
      <point x="388" y="433"/>
      <point x="388" y="348" type="curve" smooth="yes"/>
      <point x="388" y="312"/>
      <point x="375" y="283"/>
    </contour>
  </outline>
</glyph>
<glyph name="registered" format="1">
  <advance width="747"/>
  <unicode hex="00AE"/>
  <outline>
    <contour>
      <point x="260" y="276" type="line"/>
      <point x="294" y="276" type="line"/>
      <point x="294" y="411" type="line"/>
      <point x="394" y="409" type="line"/>
      <point x="483" y="276" type="line"/>
      <point x="525" y="276" type="line"/>
      <point x="432" y="414" type="line"/>
      <point x="433" y="418" type="line"/>
      <point x="483" y="433"/>
      <point x="511" y="468"/>
      <point x="511" y="520" type="curve" smooth="yes"/>
      <point x="511" y="596"/>
      <point x="461" y="630"/>
      <point x="352" y="630" type="curve" smooth="yes"/>
      <point x="327" y="630"/>
      <point x="296" y="627"/>
      <point x="260" y="622" type="curve"/>
    </contour>
    <contour>
      <point x="357" y="443" type="curve" smooth="yes"/>
      <point x="334" y="443"/>
      <point x="309" y="444"/>
      <point x="294" y="445" type="curve"/>
      <point x="294" y="591" type="line"/>
      <point x="321" y="594"/>
      <point x="338" y="596"/>
      <point x="356" y="596" type="curve" smooth="yes"/>
      <point x="441" y="596"/>
      <point x="477" y="574"/>
      <point x="477" y="520" type="curve" smooth="yes"/>
      <point x="477" y="468"/>
      <point x="435" y="443"/>
    </contour>
    <contour>
      <point x="373" y="138" type="curve" smooth="yes"/>
      <point x="550" y="138"/>
      <point x="681" y="268"/>
      <point x="681" y="445" type="curve" smooth="yes"/>
      <point x="681" y="622"/>
      <point x="550" y="753"/>
      <point x="373" y="753" type="curve" smooth="yes"/>
      <point x="196" y="753"/>
      <point x="66" y="622"/>
      <point x="66" y="445" type="curve" smooth="yes"/>
      <point x="66" y="268"/>
      <point x="196" y="138"/>
    </contour>
    <contour>
      <point x="373" y="172" type="curve" smooth="yes"/>
      <point x="215" y="172"/>
      <point x="100" y="287"/>
      <point x="100" y="445" type="curve" smooth="yes"/>
      <point x="100" y="603"/>
      <point x="215" y="719"/>
      <point x="373" y="719" type="curve" smooth="yes"/>
      <point x="531" y="719"/>
      <point x="647" y="603"/>
      <point x="647" y="445" type="curve" smooth="yes"/>
      <point x="647" y="287"/>
      <point x="531" y="172"/>
    </contour>
  </outline>
</glyph>
<glyph name="twosuperior" format="1">
  <advance width="420"/>
  <unicode hex="00B2"/>
  <outline>
    <contour>
      <point x="49" y="303" type="line"/>
      <point x="368" y="303" type="line"/>
      <point x="368" y="336" type="line"/>
      <point x="83" y="336" type="line"/>
      <point x="83" y="375" type="line"/>
      <point x="83" y="445"/>
      <point x="119" y="488"/>
      <point x="225" y="545" type="curve"/>
      <point x="331" y="603"/>
      <point x="364" y="643"/>
      <point x="364" y="711" type="curve" smooth="yes"/>
      <point x="364" y="804"/>
      <point x="312" y="851"/>
      <point x="210" y="851" type="curve" smooth="yes"/>
      <point x="166" y="851"/>
      <point x="119" y="845"/>
      <point x="65" y="831" type="curve"/>
      <point x="72" y="798" type="line"/>
      <point x="127" y="811"/>
      <point x="171" y="817"/>
      <point x="210" y="817" type="curve" smooth="yes"/>
      <point x="290" y="817"/>
      <point x="330" y="782"/>
      <point x="330" y="711" type="curve" smooth="yes"/>
      <point x="330" y="659"/>
      <point x="298" y="624"/>
      <point x="208" y="575" type="curve"/>
      <point x="91" y="511"/>
      <point x="49" y="458"/>
      <point x="49" y="375" type="curve"/>
    </contour>
  </outline>
</glyph>
<glyph name="threesuperior" format="1">
  <advance width="401"/>
  <unicode hex="00B3"/>
  <outline>
    <contour>
      <point x="157" y="293" type="curve" smooth="yes"/>
      <point x="280" y="293"/>
      <point x="347" y="349"/>
      <point x="347" y="451" type="curve" smooth="yes"/>
      <point x="347" y="518"/>
      <point x="315" y="564"/>
      <point x="257" y="580" type="curve"/>
      <point x="305" y="599"/>
      <point x="332" y="642"/>
      <point x="332" y="702" type="curve" smooth="yes"/>
      <point x="332" y="798"/>
      <point x="270" y="854"/>
      <point x="162" y="854" type="curve" smooth="yes"/>
      <point x="124" y="854"/>
      <point x="88" y="850"/>
      <point x="54" y="842" type="curve"/>
      <point x="54" y="810" type="line"/>
      <point x="62" y="810" type="line"/>
      <point x="105" y="816"/>
      <point x="141" y="820"/>
      <point x="163" y="820" type="curve" smooth="yes"/>
      <point x="251" y="820"/>
      <point x="297" y="780"/>
      <point x="297" y="705" type="curve" smooth="yes"/>
      <point x="297" y="633"/>
      <point x="255" y="594"/>
      <point x="178" y="594" type="curve" smooth="yes"/>
      <point x="115" y="594" type="line"/>
      <point x="115" y="560" type="line"/>
      <point x="179" y="560" type="line" smooth="yes"/>
      <point x="265" y="560"/>
      <point x="312" y="523"/>
      <point x="312" y="454" type="curve" smooth="yes"/>
      <point x="312" y="373"/>
      <point x="255" y="327"/>
      <point x="157" y="327" type="curve" smooth="yes"/>
      <point x="130" y="327"/>
      <point x="86" y="331"/>
      <point x="62" y="336" type="curve"/>
      <point x="54" y="336" type="line"/>
      <point x="54" y="304" type="line"/>
      <point x="92" y="297"/>
      <point x="127" y="293"/>
    </contour>
  </outline>
</glyph>
<glyph name="onesuperior" format="1">
  <advance width="307"/>
  <unicode hex="00B9"/>
  <outline>
    <contour>
      <point x="182" y="300" type="line"/>
      <point x="216" y="300" type="line"/>
      <point x="216" y="846" type="line"/>
      <point x="191" y="846" type="line"/>
      <point x="30" y="751" type="line"/>
      <point x="30" y="745" type="line"/>
      <point x="34" y="725" type="line"/>
      <point x="44" y="725" type="line"/>
      <point x="182" y="801" type="line"/>
    </contour>
  </outline>
</glyph>
<glyph name="ordmasculine" format="1">
  <advance width="480"/>
  <unicode hex="00BA"/>
  <outline>
    <contour>
      <point x="240" y="380" type="curve" smooth="yes"/>
      <point x="165" y="380"/>
      <point x="95" y="422"/>
      <point x="95" y="546" type="curve" smooth="yes"/>
      <point x="95" y="672"/>
      <point x="165" y="711"/>
      <point x="240" y="711" type="curve" smooth="yes"/>
      <point x="316" y="711"/>
      <point x="383" y="672"/>
      <point x="383" y="546" type="curve" smooth="yes"/>
      <point x="383" y="422"/>
      <point x="316" y="380"/>
    </contour>
    <contour>
      <point x="240" y="345" type="curve" smooth="yes"/>
      <point x="349" y="345"/>
      <point x="420" y="411"/>
      <point x="420" y="546" type="curve" smooth="yes"/>
      <point x="420" y="681"/>
      <point x="349" y="747"/>
      <point x="240" y="747" type="curve" smooth="yes"/>
      <point x="130" y="747"/>
      <point x="61" y="681"/>
      <point x="61" y="546" type="curve" smooth="yes"/>
      <point x="61" y="411"/>
      <point x="130" y="345"/>
    </contour>
  </outline>
</glyph>
<glyph name="AE" format="1">
  <advance width="853"/>
  <unicode hex="00C6"/>
  <outline>
    <contour>
      <point x="525" y="760" type="move" name="topUC"/>
    </contour>
    <contour>
      <point x="431" y="0" type="line"/>
      <point x="798" y="0" type="line"/>
      <point x="798" y="34" type="line"/>
      <point x="465" y="34" type="line"/>
      <point x="435" y="706" type="line"/>
      <point x="789" y="706" type="line"/>
      <point x="789" y="740" type="line"/>
      <point x="401" y="740" type="line"/>
    </contour>
    <contour>
      <point x="14" y="0" type="line"/>
      <point x="47" y="0" type="line"/>
      <point x="357" y="705" type="line"/>
      <point x="411" y="705" type="line"/>
      <point x="413" y="740" type="line"/>
      <point x="333" y="740" type="line"/>
      <point x="14" y="6" type="line"/>
    </contour>
    <contour>
      <point x="144" y="249" type="line"/>
      <point x="445" y="249" type="line"/>
      <point x="445" y="283" type="line"/>
      <point x="144" y="283" type="line"/>
    </contour>
    <contour>
      <point x="441" y="359" type="line"/>
      <point x="756" y="359" type="line"/>
      <point x="756" y="393" type="line"/>
      <point x="441" y="393" type="line"/>
    </contour>
  </outline>
</glyph>
<glyph name="Eth" format="1">
  <advance width="749"/>
  <unicode hex="00D0"/>
  <outline>
    <contour>
      <point x="7" y="351" type="line"/>
      <point x="379" y="351" type="line"/>
      <point x="379" y="385" type="line"/>
      <point x="7" y="385" type="line"/>
    </contour>
    <component base="D" xOffset="4"/>
  </outline>
</glyph>
<glyph name="Oslash" format="1">
  <advance width="759"/>
  <unicode hex="00D8"/>
  <outline>
    <contour>
      <point x="379" y="760" type="move" name="topUC"/>
    </contour>
    <contour>
      <point x="380" y="-10" type="curve"/>
      <point x="578" y="-10"/>
      <point x="697" y="122"/>
      <point x="697" y="369" type="curve" smooth="yes"/>
      <point x="697" y="616"/>
      <point x="578" y="750"/>
      <point x="380" y="750" type="curve" smooth="yes"/>
      <point x="182" y="750"/>
      <point x="63" y="616"/>
      <point x="63" y="369" type="curve" smooth="yes"/>
      <point x="63" y="122"/>
      <point x="182" y="-10"/>
    </contour>
    <contour>
      <point x="380" y="24" type="curve"/>
      <point x="202" y="24"/>
      <point x="97" y="152"/>
      <point x="97" y="369" type="curve" smooth="yes"/>
      <point x="97" y="589"/>
      <point x="201" y="716"/>
      <point x="380" y="716" type="curve" smooth="yes"/>
      <point x="559" y="716"/>
      <point x="663" y="589"/>
      <point x="663" y="369" type="curve" smooth="yes"/>
      <point x="663" y="154"/>
      <point x="557" y="24"/>
    </contour>
    <contour>
      <point x="61" y="0" type="line"/>
      <point x="104" y="0" type="line"/>
      <point x="694" y="740" type="line"/>
      <point x="650" y="740" type="line"/>
    </contour>
  </outline>
</glyph>
<glyph name="germandbls" format="1">
  <advance width="608"/>
  <unicode hex="00DF"/>
  <outline>
    <contour>
      <point x="382" y="-10" type="curve" smooth="yes"/>
      <point x="496" y="-10"/>
      <point x="566" y="47"/>
      <point x="566" y="140" type="curve" smooth="yes"/>
      <point x="566" y="253"/>
      <point x="482" y="276"/>
      <point x="401" y="294" type="curve" smooth="yes"/>
      <point x="326" y="311"/>
      <point x="254" y="327"/>
      <point x="254" y="411" type="curve" smooth="yes"/>
      <point x="254" y="481"/>
      <point x="307" y="519"/>
      <point x="404" y="519" type="curve"/>
      <point x="490" y="519" type="line"/>
      <point x="490" y="553" type="line"/>
      <point x="404" y="553" type="line"/>
      <point x="289" y="553"/>
      <point x="219" y="500"/>
      <point x="219" y="411" type="curve" smooth="yes"/>
      <point x="219" y="297"/>
      <point x="311" y="279"/>
      <point x="395" y="261" type="curve" smooth="yes"/>
      <point x="466" y="246"/>
      <point x="531" y="225"/>
      <point x="531" y="140" type="curve" smooth="yes"/>
      <point x="531" y="66"/>
      <point x="478" y="24"/>
      <point x="382" y="24" type="curve" smooth="yes"/>
      <point x="331" y="24"/>
      <point x="273" y="32"/>
      <point x="211" y="48" type="curve"/>
      <point x="211" y="14" type="line"/>
      <point x="305" y="-5"/>
      <point x="339" y="-10"/>
    </contour>
    <contour>
      <point x="90" y="0" type="line"/>
      <point x="124" y="0" type="line"/>
      <point x="124" y="598" type="line" smooth="yes"/>
      <point x="124" y="725"/>
      <point x="180" y="774"/>
      <point x="296" y="774" type="curve" smooth="yes"/>
      <point x="412" y="774"/>
      <point x="468" y="724"/>
      <point x="468" y="598" type="curve" smooth="yes"/>
      <point x="468" y="519" type="line"/>
      <point x="502" y="519" type="line"/>
      <point x="502" y="598" type="line" smooth="yes"/>
      <point x="502" y="747"/>
      <point x="431" y="810"/>
      <point x="296" y="810" type="curve" smooth="yes"/>
      <point x="161" y="810"/>
      <point x="90" y="751"/>
      <point x="90" y="598" type="curve" smooth="yes"/>
    </contour>
  </outline>
</glyph>
<glyph name="ae" format="1">
  <advance width="889"/>
  <unicode hex="00E6"/>
  <outline>
    <contour>
      <point x="452" y="600" type="move" name="top"/>
    </contour>
    <contour>
      <point x="649" y="-9" type="curve" smooth="yes"/>
      <point x="698" y="-9"/>
      <point x="766" y="4"/>
      <point x="817" y="23" type="curve"/>
      <point x="812" y="55" type="line"/>
      <point x="749" y="34"/>
      <point x="702" y="25"/>
      <point x="654" y="25" type="curve" smooth="yes"/>
      <point x="515" y="25"/>
      <point x="443" y="100"/>
      <point x="439" y="251" type="curve"/>
      <point x="830" y="251" type="line"/>
      <point x="832" y="261"/>
      <point x="833" y="280"/>
      <point x="833" y="308" type="curve" smooth="yes"/>
      <point x="833" y="463"/>
      <point x="764" y="549"/>
      <point x="640" y="549" type="curve" smooth="yes"/>
      <point x="540" y="549"/>
      <point x="470" y="505"/>
      <point x="436" y="427" type="curve"/>
      <point x="432" y="428" type="line"/>
      <point x="418" y="505"/>
      <point x="361" y="544"/>
      <point x="253" y="544" type="curve" smooth="yes"/>
      <point x="200" y="544"/>
      <point x="154" y="539"/>
      <point x="82" y="526" type="curve"/>
      <point x="86" y="492" type="line"/>
      <point x="156" y="505"/>
      <point x="201" y="510"/>
      <point x="253" y="510" type="curve" smooth="yes"/>
      <point x="366" y="510"/>
      <point x="404" y="472"/>
      <point x="404" y="362" type="curve" smooth="yes"/>
      <point x="404" y="306" type="line"/>
      <point x="261" y="293" type="line" smooth="yes"/>
      <point x="112" y="279"/>
      <point x="50" y="230"/>
      <point x="50" y="127" type="curve" smooth="yes"/>
      <point x="50" y="39"/>
      <point x="97" y="-5"/>
      <point x="192" y="-5" type="curve" smooth="yes"/>
      <point x="247" y="-5"/>
      <point x="318" y="19"/>
      <point x="439" y="94" type="curve"/>
      <point x="442" y="93" type="line"/>
      <point x="480" y="27"/>
      <point x="550" y="-9"/>
    </contour>
    <contour>
      <point x="192" y="29" type="curve" smooth="yes"/>
      <point x="119" y="29"/>
      <point x="84" y="61"/>
      <point x="84" y="127" type="curve" smooth="yes"/>
      <point x="84" y="215"/>
      <point x="130" y="250"/>
      <point x="267" y="263" type="curve" smooth="yes"/>
      <point x="404" y="276" type="line"/>
      <point x="404" y="106" type="line"/>
      <point x="322" y="54"/>
      <point x="252" y="29"/>
    </contour>
    <contour>
      <point x="439" y="285" type="line"/>
      <point x="445" y="436"/>
      <point x="514" y="515"/>
      <point x="640" y="515" type="curve" smooth="yes"/>
      <point x="748" y="515"/>
      <point x="794" y="450"/>
      <point x="798" y="285" type="curve"/>
    </contour>
  </outline>
</glyph>
<glyph name="eth" format="1">
  <advance width="605"/>
  <unicode hex="00F0"/>
  <outline>
    <contour>
      <point x="294" y="-10" type="curve" smooth="yes"/>
      <point x="444" y="-10"/>
      <point x="530" y="102"/>
      <point x="530" y="300" type="curve" smooth="yes"/>
      <point x="530" y="512"/>
      <point x="475" y="680"/>
      <point x="363" y="808" type="curve"/>
      <point x="319" y="808" type="line"/>
      <point x="417" y="700"/>
      <point x="473" y="574"/>
      <point x="491" y="422" type="curve"/>
      <point x="452" y="510"/>
      <point x="392" y="550"/>
      <point x="294" y="550" type="curve" smooth="yes"/>
      <point x="143" y="550"/>
      <point x="58" y="449"/>
      <point x="58" y="270" type="curve" smooth="yes"/>
      <point x="58" y="91"/>
      <point x="143" y="-10"/>
    </contour>
    <contour>
      <point x="294" y="24" type="curve" smooth="yes"/>
      <point x="160" y="24"/>
      <point x="94" y="106"/>
      <point x="94" y="270" type="curve" smooth="yes"/>
      <point x="94" y="434"/>
      <point x="160" y="516"/>
      <point x="294" y="516" type="curve" smooth="yes"/>
      <point x="420" y="516"/>
      <point x="494" y="415"/>
      <point x="494" y="300" type="curve" smooth="yes"/>
      <point x="494" y="117"/>
      <point x="427" y="24"/>
    </contour>
    <contour>
      <point x="232" y="636" type="line"/>
      <point x="589" y="678" type="line"/>
      <point x="589" y="712" type="line"/>
      <point x="232" y="671" type="line"/>
    </contour>
  </outline>
</glyph>
<glyph name="divide" format="1">
  <advance width="527"/>
  <unicode hex="00F7"/>
  <outline>
    <contour>
      <point x="267" y="189" type="curve" smooth="yes"/>
      <point x="286" y="189"/>
      <point x="299" y="201"/>
      <point x="299" y="220" type="curve" smooth="yes"/>
      <point x="299" y="239"/>
      <point x="286" y="252"/>
      <point x="267" y="252" type="curve" smooth="yes"/>
      <point x="248" y="252"/>
      <point x="236" y="240"/>
      <point x="236" y="220" type="curve" smooth="yes"/>
      <point x="236" y="201"/>
      <point x="248" y="189"/>
    </contour>
    <contour>
      <point x="82" y="353" type="line"/>
      <point x="446" y="353" type="line"/>
      <point x="446" y="387" type="line"/>
      <point x="82" y="387" type="line"/>
    </contour>
    <contour>
      <point x="267" y="480" type="curve" smooth="yes"/>
      <point x="286" y="480"/>
      <point x="299" y="492"/>
      <point x="299" y="511" type="curve" smooth="yes"/>
      <point x="299" y="530"/>
      <point x="286" y="543"/>
      <point x="267" y="543" type="curve" smooth="yes"/>
      <point x="248" y="543"/>
      <point x="236" y="531"/>
      <point x="236" y="511" type="curve" smooth="yes"/>
      <point x="236" y="492"/>
      <point x="248" y="480"/>
    </contour>
  </outline>
</glyph>
<glyph name="dotlessi" format="1">
  <advance width="218"/>
  <unicode hex="0131"/>
  <outline>
    <contour>
      <point x="110" y="600" type="move" name="top"/>
    </contour>
    <contour>
      <point x="92" y="0" type="line"/>
      <point x="126" y="0" type="line"/>
      <point x="126" y="540" type="line"/>
      <point x="92" y="540" type="line"/>
    </contour>
  </outline>
</glyph>
<glyph name="lslash" format="1">
  <advance width="269"/>
  <unicode hex="0142"/>
  <outline>
    <contour>
      <point x="27" y="275" type="line"/>
      <point x="251" y="420" type="line"/>
      <point x="251" y="459" type="line"/>
      <point x="27" y="314" type="line"/>
    </contour>
    <component base="l" xOffset="28"/>
  </outline>
</glyph>
<glyph name="Eng" format="1">
  <advance width="797"/>
  <unicode hex="014A"/>
  <outline>
    <contour>
      <point x="611" y="-182" type="line"/>
      <point x="657" y="-118"/>
      <point x="692" y="-8"/>
      <point x="692" y="72" type="curve" smooth="yes"/>
      <point x="692" y="740" type="line"/>
      <point x="658" y="740" type="line"/>
      <point x="658" y="56" type="line"/>
      <point x="653" y="56" type="line"/>
      <point x="588" y="148" type="line"/>
      <point x="139" y="740" type="line"/>
      <point x="106" y="740" type="line"/>
      <point x="106" y="0" type="line"/>
      <point x="140" y="0" type="line"/>
      <point x="140" y="682" type="line"/>
      <point x="145" y="682" type="line"/>
      <point x="202" y="600" type="line"/>
      <point x="648" y="13" type="line"/>
      <point x="643" y="-35"/>
      <point x="612" y="-121"/>
      <point x="581" y="-175" type="curve"/>
    </contour>
  </outline>
</glyph>
<glyph name="eng" format="1">
  <advance width="606"/>
  <unicode hex="014B"/>
  <outline>
    <contour>
      <point x="441" y="-219" type="line"/>
      <point x="485" y="-158"/>
      <point x="521" y="-27"/>
      <point x="521" y="70" type="curve"/>
      <point x="521" y="402" type="line" smooth="yes"/>
      <point x="521" y="500"/>
      <point x="473" y="550"/>
      <point x="378" y="550" type="curve" smooth="yes"/>
      <point x="315" y="550"/>
      <point x="257" y="533"/>
      <point x="126" y="475" type="curve"/>
      <point x="122" y="475" type="line"/>
      <point x="117" y="540" type="line"/>
      <point x="90" y="540" type="line"/>
      <point x="90" y="0" type="line"/>
      <point x="124" y="0" type="line"/>
      <point x="124" y="438" type="line"/>
      <point x="230" y="489"/>
      <point x="314" y="515"/>
      <point x="373" y="515" type="curve" smooth="yes"/>
      <point x="452" y="515"/>
      <point x="487" y="476"/>
      <point x="487" y="387" type="curve" smooth="yes"/>
      <point x="487" y="70" type="line"/>
      <point x="487" y="-15"/>
      <point x="454" y="-136"/>
      <point x="412" y="-206" type="curve"/>
    </contour>
  </outline>
</glyph>
<glyph name="OE" format="1">
  <advance width="971"/>
  <unicode hex="0152"/>
  <outline>
    <contour>
      <point x="384" y="-10" type="curve" smooth="yes"/>
      <point x="420" y="-10"/>
      <point x="454" y="-6"/>
      <point x="482" y="0" type="curve"/>
      <point x="908" y="0" type="line"/>
      <point x="908" y="34" type="line"/>
      <point x="516" y="34" type="line"/>
      <point x="516" y="361" type="line"/>
      <point x="883" y="361" type="line"/>
      <point x="883" y="395" type="line"/>
      <point x="516" y="395" type="line"/>
      <point x="516" y="706" type="line"/>
      <point x="900" y="706" type="line"/>
      <point x="900" y="740" type="line"/>
      <point x="482" y="740" type="line"/>
      <point x="450" y="749"/>
      <point x="421" y="750"/>
      <point x="384" y="750" type="curve" smooth="yes"/>
      <point x="183" y="750"/>
      <point x="62" y="616"/>
      <point x="62" y="369" type="curve" smooth="yes"/>
      <point x="62" y="122"/>
      <point x="183" y="-10"/>
    </contour>
    <contour>
      <point x="384" y="24" type="curve" smooth="yes"/>
      <point x="203" y="24"/>
      <point x="96" y="152"/>
      <point x="96" y="369" type="curve" smooth="yes"/>
      <point x="96" y="589"/>
      <point x="202" y="716"/>
      <point x="384" y="716" type="curve" smooth="yes"/>
      <point x="421" y="716"/>
      <point x="451" y="714"/>
      <point x="482" y="703" type="curve"/>
      <point x="482" y="37" type="line"/>
      <point x="452" y="26"/>
      <point x="420" y="24"/>
    </contour>
  </outline>
</glyph>
<glyph name="oe" format="1">
  <advance width="981"/>
  <unicode hex="0153"/>
  <outline>
    <contour>
      <point x="740" y="-9" type="curve" smooth="yes"/>
      <point x="789" y="-9"/>
      <point x="857" y="4"/>
      <point x="908" y="23" type="curve"/>
      <point x="903" y="55" type="line"/>
      <point x="840" y="34"/>
      <point x="793" y="25"/>
      <point x="745" y="25" type="curve" smooth="yes"/>
      <point x="606" y="25"/>
      <point x="534" y="100"/>
      <point x="530" y="251" type="curve"/>
      <point x="921" y="251" type="line"/>
      <point x="923" y="261"/>
      <point x="924" y="280"/>
      <point x="924" y="308" type="curve" smooth="yes"/>
      <point x="924" y="463"/>
      <point x="855" y="549"/>
      <point x="731" y="549" type="curve" smooth="yes"/>
      <point x="619" y="549"/>
      <point x="545" y="494"/>
      <point x="515" y="398" type="curve"/>
      <point x="511" y="398" type="line"/>
      <point x="482" y="494"/>
      <point x="406" y="550"/>
      <point x="294" y="550" type="curve" smooth="yes"/>
      <point x="143" y="550"/>
      <point x="58" y="449"/>
      <point x="58" y="270" type="curve" smooth="yes"/>
      <point x="58" y="91"/>
      <point x="143" y="-10"/>
      <point x="294" y="-10" type="curve" smooth="yes"/>
      <point x="404" y="-10"/>
      <point x="479" y="44"/>
      <point x="510" y="137" type="curve"/>
      <point x="514" y="137" type="line"/>
      <point x="543" y="43"/>
      <point x="620" y="-9"/>
    </contour>
    <contour>
      <point x="294" y="24" type="curve" smooth="yes"/>
      <point x="160" y="24"/>
      <point x="94" y="106"/>
      <point x="94" y="270" type="curve" smooth="yes"/>
      <point x="94" y="434"/>
      <point x="160" y="516"/>
      <point x="294" y="516" type="curve" smooth="yes"/>
      <point x="428" y="516"/>
      <point x="494" y="434"/>
      <point x="494" y="270" type="curve" smooth="yes"/>
      <point x="494" y="106"/>
      <point x="428" y="24"/>
    </contour>
    <contour>
      <point x="530" y="285" type="line"/>
      <point x="536" y="436"/>
      <point x="605" y="515"/>
      <point x="731" y="515" type="curve" smooth="yes"/>
      <point x="839" y="515"/>
      <point x="885" y="450"/>
      <point x="889" y="285" type="curve"/>
    </contour>
  </outline>
</glyph>
<glyph name="florin" format="1">
  <advance width="382"/>
  <unicode hex="0192"/>
  <outline>
    <contour>
      <point x="160" y="-220" type="line"/>
      <point x="194" y="-187" type="line"/>
      <point x="194" y="506" type="line"/>
      <point x="352" y="506" type="line"/>
      <point x="352" y="540" type="line"/>
      <point x="194" y="540" type="line"/>
      <point x="194" y="599" type="line" smooth="yes"/>
      <point x="198" y="751"/>
      <point x="219" y="773"/>
      <point x="384" y="785" type="curve"/>
      <point x="381" y="813" type="line"/>
      <point x="194" y="804"/>
      <point x="161" y="766"/>
      <point x="161" y="563" type="curve" smooth="yes"/>
      <point x="161" y="540" type="line"/>
      <point x="31" y="540" type="line"/>
      <point x="31" y="506" type="line"/>
      <point x="160" y="506" type="line"/>
    </contour>
  </outline>
</glyph>
<glyph name="Aringacute" format="1">
  <advance width="682"/>
  <unicode hex="01FA"/>
  <outline>
    <contour>
      <point x="13" y="0" type="line"/>
      <point x="49" y="0" type="line"/>
      <point x="150" y="249" type="line"/>
      <point x="532" y="249" type="line"/>
      <point x="633" y="0" type="line"/>
      <point x="669" y="0" type="line"/>
      <point x="669" y="5" type="line"/>
      <point x="401" y="664" type="line"/>
      <point x="435" y="682"/>
      <point x="457" y="715"/>
      <point x="457" y="754" type="curve" smooth="yes"/>
      <point x="457" y="807"/>
      <point x="418" y="849"/>
      <point x="363" y="859" type="curve"/>
      <point x="431" y="960" type="line"/>
      <point x="393" y="960" type="line"/>
      <point x="322" y="860" type="line"/>
      <point x="262" y="853"/>
      <point x="219" y="810"/>
      <point x="219" y="754" type="curve" smooth="yes"/>
      <point x="219" y="713"/>
      <point x="243" y="679"/>
      <point x="280" y="661" type="curve"/>
      <point x="13" y="5" type="line"/>
    </contour>
    <contour>
      <point x="339" y="683" type="curve" smooth="yes"/>
      <point x="287" y="683"/>
      <point x="254" y="710"/>
      <point x="254" y="754" type="curve" smooth="yes"/>
      <point x="254" y="799"/>
      <point x="287" y="827"/>
      <point x="339" y="827" type="curve" smooth="yes"/>
      <point x="390" y="827"/>
      <point x="422" y="799"/>
      <point x="422" y="754" type="curve" smooth="yes"/>
      <point x="422" y="710"/>
      <point x="390" y="683"/>
    </contour>
    <contour>
      <point x="164" y="283" type="line"/>
      <point x="290" y="594" type="line"/>
      <point x="313" y="651" type="line"/>
      <point x="368" y="652" type="line"/>
      <point x="392" y="594" type="line"/>
      <point x="518" y="283" type="line"/>
    </contour>
  </outline>
</glyph>
<glyph name="schwa" format="1">
  <advance width="543"/>
  <unicode hex="0259"/>
  <outline>
    <contour>
      <point x="240" y="549" type="curve" smooth="yes"/>
      <point x="191" y="549"/>
      <point x="123" y="536"/>
      <point x="72" y="517" type="curve"/>
      <point x="77" y="485" type="line"/>
      <point x="140" y="506"/>
      <point x="187" y="515"/>
      <point x="235" y="515" type="curve" smooth="yes"/>
      <point x="378" y="515"/>
      <point x="450" y="435"/>
      <point x="450" y="276" type="curve" smooth="yes"/>
      <point x="450" y="111"/>
      <point x="381" y="25"/>
      <point x="249" y="25" type="curve" smooth="yes"/>
      <point x="135" y="25"/>
      <point x="90" y="97"/>
      <point x="90" y="282" type="curve"/>
      <point x="63" y="255" type="line"/>
      <point x="473" y="255" type="line"/>
      <point x="473" y="289" type="line"/>
      <point x="59" y="289" type="line"/>
      <point x="57" y="279"/>
      <point x="56" y="260"/>
      <point x="56" y="232" type="curve" smooth="yes"/>
      <point x="56" y="77"/>
      <point x="125" y="-9"/>
      <point x="249" y="-9" type="curve" smooth="yes"/>
      <point x="401" y="-9"/>
      <point x="484" y="93"/>
      <point x="484" y="281" type="curve" smooth="yes"/>
      <point x="484" y="456"/>
      <point x="399" y="549"/>
    </contour>
  </outline>
</glyph>
<glyph name="caron" format="1">
  <advance width="414"/>
  <unicode hex="02C7"/>
  <outline>
    <contour>
      <point x="207" y="600" type="move" name="_top"/>
    </contour>
    <contour>
      <point x="56" y="696" type="line"/>
      <point x="207" y="624" type="line"/>
      <point x="358" y="696" type="line"/>
      <point x="358" y="737" type="line"/>
      <point x="207" y="665" type="line"/>
      <point x="56" y="737" type="line"/>
    </contour>
  </outline>
</glyph>
<glyph name="breve" format="1">
  <advance width="482"/>
  <unicode hex="02D8"/>
  <outline>
    <contour>
      <point x="239" y="600" type="move" name="_top"/>
    </contour>
    <contour>
      <point x="239" y="621" type="curve" smooth="yes"/>
      <point x="352" y="621"/>
      <point x="406" y="673"/>
      <point x="406" y="762" type="curve"/>
      <point x="372" y="762" type="line"/>
      <point x="372" y="677"/>
      <point x="320" y="650"/>
      <point x="239" y="650" type="curve" smooth="yes"/>
      <point x="157" y="650"/>
      <point x="106" y="677"/>
      <point x="106" y="762" type="curve"/>
      <point x="72" y="762" type="line"/>
      <point x="72" y="672"/>
      <point x="128" y="621"/>
    </contour>
  </outline>
</glyph>
<glyph name="ring" format="1">
  <advance width="366"/>
  <unicode hex="02DA"/>
  <outline>
    <contour>
      <point x="182" y="600" type="move" name="_top"/>
    </contour>
    <contour>
      <point x="182" y="606" type="curve" smooth="yes"/>
      <point x="249" y="606"/>
      <point x="300" y="651"/>
      <point x="300" y="711" type="curve" smooth="yes"/>
      <point x="300" y="772"/>
      <point x="249" y="818"/>
      <point x="182" y="818" type="curve" smooth="yes"/>
      <point x="114" y="818"/>
      <point x="62" y="772"/>
      <point x="62" y="711" type="curve" smooth="yes"/>
      <point x="62" y="651"/>
      <point x="114" y="606"/>
    </contour>
    <contour>
      <point x="182" y="640" type="curve" smooth="yes"/>
      <point x="130" y="640"/>
      <point x="97" y="667"/>
      <point x="97" y="711" type="curve" smooth="yes"/>
      <point x="97" y="756"/>
      <point x="130" y="784"/>
      <point x="182" y="784" type="curve" smooth="yes"/>
      <point x="233" y="784"/>
      <point x="265" y="756"/>
      <point x="265" y="711" type="curve" smooth="yes"/>
      <point x="265" y="667"/>
      <point x="233" y="640"/>
    </contour>
  </outline>
</glyph>
<glyph name="tilde" format="1">
  <advance width="514"/>
  <unicode hex="02DC"/>
  <outline>
    <contour>
      <point x="250" y="600" type="move" name="_top"/>
    </contour>
    <contour>
      <point x="75" y="666" type="line"/>
      <point x="105" y="692"/>
      <point x="136" y="703"/>
      <point x="167" y="703" type="curve" smooth="yes"/>
      <point x="218" y="703"/>
      <point x="270" y="660"/>
      <point x="324" y="660" type="curve" smooth="yes"/>
      <point x="369" y="660"/>
      <point x="412" y="678"/>
      <point x="446" y="707" type="curve"/>
      <point x="422" y="731" type="line"/>
      <point x="392" y="706"/>
      <point x="359" y="693"/>
      <point x="325" y="693" type="curve" smooth="yes"/>
      <point x="267" y="693"/>
      <point x="228" y="736"/>
      <point x="164" y="736" type="curve" smooth="yes"/>
      <point x="125" y="736"/>
      <point x="88" y="722"/>
      <point x="51" y="690" type="curve"/>
    </contour>
  </outline>
</glyph>
<glyph name="uni0394" format="1">
  <advance width="707"/>
  <unicode hex="0394"/>
  <outline>
    <contour>
      <point x="12" y="0" type="line"/>
      <point x="695" y="0" type="line"/>
      <point x="376" y="740" type="line"/>
      <point x="331" y="740" type="line"/>
    </contour>
    <contour>
      <point x="62" y="34" type="line"/>
      <point x="353" y="708" type="line"/>
      <point x="644" y="34" type="line"/>
    </contour>
  </outline>
</glyph>
<glyph name="emdash" format="1">
  <advance width="783"/>
  <unicode hex="2014"/>
  <outline>
    <contour>
      <point x="79" y="261" type="line"/>
      <point x="704" y="261" type="line"/>
      <point x="704" y="299" type="line"/>
      <point x="79" y="299" type="line"/>
    </contour>
  </outline>
</glyph>
<glyph name="daggerdbl" format="1">
  <advance width="580"/>
  <unicode hex="2021"/>
  <outline>
    <contour>
      <point x="273" y="-199" type="line"/>
      <point x="307" y="-199" type="line"/>
      <point x="307" y="-119" type="line"/>
      <point x="299" y="64" type="line"/>
      <point x="450" y="56" type="line"/>
      <point x="511" y="56" type="line"/>
      <point x="511" y="90" type="line"/>
      <point x="450" y="90" type="line"/>
      <point x="299" y="82" type="line"/>
      <point x="307" y="265" type="line"/>
      <point x="307" y="345" type="line"/>
      <point x="299" y="528" type="line"/>
      <point x="450" y="520" type="line"/>
      <point x="511" y="520" type="line"/>
      <point x="511" y="554" type="line"/>
      <point x="450" y="554" type="line"/>
      <point x="299" y="546" type="line"/>
      <point x="306" y="729" type="line"/>
      <point x="306" y="808" type="line"/>
      <point x="272" y="808" type="line"/>
      <point x="272" y="729" type="line"/>
      <point x="281" y="546" type="line"/>
      <point x="130" y="554" type="line"/>
      <point x="69" y="554" type="line"/>
      <point x="69" y="520" type="line"/>
      <point x="130" y="520" type="line"/>
      <point x="281" y="528" type="line"/>
      <point x="272" y="346" type="line"/>
      <point x="272" y="265" type="line"/>
      <point x="281" y="82" type="line"/>
      <point x="130" y="90" type="line"/>
      <point x="69" y="90" type="line"/>
      <point x="69" y="56" type="line"/>
      <point x="130" y="56" type="line"/>
      <point x="281" y="64" type="line"/>
      <point x="273" y="-119" type="line"/>
    </contour>
  </outline>
</glyph>
<glyph name="foursuperior" format="1">
  <advance width="455"/>
  <unicode hex="2074"/>
  <outline>
    <contour>
      <point x="300" y="300" type="line"/>
      <point x="334" y="300" type="line"/>
      <point x="334" y="440" type="line"/>
      <point x="423" y="440" type="line"/>
      <point x="423" y="474" type="line"/>
      <point x="334" y="474" type="line"/>
      <point x="334" y="673" type="line"/>
      <point x="310" y="673" type="line"/>
      <point x="301" y="474" type="line"/>
      <point x="72" y="474" type="line"/>
      <point x="237" y="838" type="line"/>
      <point x="237" y="845" type="line"/>
      <point x="217" y="854" type="line"/>
      <point x="211" y="854" type="line"/>
      <point x="28" y="462" type="line"/>
      <point x="43" y="440" type="line"/>
      <point x="300" y="440" type="line"/>
    </contour>
  </outline>
</glyph>
<glyph name="sixsuperior" format="1">
  <advance width="472"/>
  <unicode hex="2076"/>
  <outline>
    <contour>
      <point x="249" y="292" type="curve" smooth="yes"/>
      <point x="356" y="292"/>
      <point x="428" y="365"/>
      <point x="428" y="473" type="curve" smooth="yes"/>
      <point x="428" y="572"/>
      <point x="359" y="632"/>
      <point x="248" y="632" type="curve" smooth="yes"/>
      <point x="199" y="632"/>
      <point x="140" y="611"/>
      <point x="90" y="576" type="curve"/>
      <point x="101" y="729"/>
      <point x="176" y="821"/>
      <point x="296" y="821" type="curve" smooth="yes"/>
      <point x="326" y="821"/>
      <point x="353" y="817"/>
      <point x="391" y="807" type="curve"/>
      <point x="391" y="842" type="line"/>
      <point x="355" y="851"/>
      <point x="326" y="855"/>
      <point x="296" y="855" type="curve" smooth="yes"/>
      <point x="144" y="855"/>
      <point x="55" y="738"/>
      <point x="55" y="540" type="curve" smooth="yes"/>
      <point x="55" y="375"/>
      <point x="121" y="292"/>
    </contour>
    <contour>
      <point x="249" y="326" type="curve" smooth="yes"/>
      <point x="143" y="326"/>
      <point x="91" y="394"/>
      <point x="89" y="535" type="curve"/>
      <point x="136" y="574"/>
      <point x="198" y="598"/>
      <point x="248" y="598" type="curve" smooth="yes"/>
      <point x="339" y="598"/>
      <point x="393" y="552"/>
      <point x="393" y="473" type="curve" smooth="yes"/>
      <point x="393" y="385"/>
      <point x="336" y="326"/>
    </contour>
  </outline>
</glyph>
<glyph name="eightsuperior" format="1">
  <advance width="471"/>
  <unicode hex="2078"/>
  <outline>
    <contour>
      <point x="235" y="297" type="curve" smooth="yes"/>
      <point x="343" y="297"/>
      <point x="419" y="347"/>
      <point x="419" y="440" type="curve" smooth="yes"/>
      <point x="419" y="515"/>
      <point x="369" y="550"/>
      <point x="309" y="573" type="curve"/>
      <point x="347" y="594"/>
      <point x="397" y="636"/>
      <point x="397" y="715" type="curve" smooth="yes"/>
      <point x="397" y="812"/>
      <point x="328" y="854"/>
      <point x="235" y="854" type="curve" smooth="yes"/>
      <point x="141" y="854"/>
      <point x="71" y="811"/>
      <point x="71" y="715" type="curve" smooth="yes"/>
      <point x="71" y="650"/>
      <point x="105" y="615"/>
      <point x="150" y="592" type="curve"/>
      <point x="109" y="573"/>
      <point x="54" y="530"/>
      <point x="54" y="444" type="curve" smooth="yes"/>
      <point x="54" y="342"/>
      <point x="126" y="297"/>
    </contour>
    <contour>
      <point x="235" y="331" type="curve" smooth="yes"/>
      <point x="146" y="331"/>
      <point x="88" y="366"/>
      <point x="88" y="444" type="curve" smooth="yes"/>
      <point x="88" y="536"/>
      <point x="168" y="567"/>
      <point x="193" y="575" type="curve"/>
      <point x="209" y="569"/>
      <point x="225" y="564"/>
      <point x="241" y="559" type="curve" smooth="yes"/>
      <point x="313" y="538"/>
      <point x="385" y="517"/>
      <point x="385" y="440" type="curve" smooth="yes"/>
      <point x="385" y="369"/>
      <point x="323" y="331"/>
    </contour>
    <contour>
      <point x="267" y="587" type="curve"/>
      <point x="262" y="588"/>
      <point x="257" y="590"/>
      <point x="251" y="592" type="curve" smooth="yes"/>
      <point x="179" y="614"/>
      <point x="105" y="635"/>
      <point x="105" y="715" type="curve" smooth="yes"/>
      <point x="105" y="787"/>
      <point x="161" y="820"/>
      <point x="235" y="820" type="curve" smooth="yes"/>
      <point x="308" y="820"/>
      <point x="363" y="788"/>
      <point x="363" y="715" type="curve" smooth="yes"/>
      <point x="363" y="632"/>
      <point x="292" y="597"/>
    </contour>
  </outline>
</glyph>
<glyph name="sixinferior" format="1">
  <advance width="472"/>
  <unicode hex="2086"/>
  <outline>
    <contour>
      <point x="249" y="-108" type="curve" smooth="yes"/>
      <point x="356" y="-108"/>
      <point x="428" y="-35"/>
      <point x="428" y="73" type="curve" smooth="yes"/>
      <point x="428" y="172"/>
      <point x="359" y="232"/>
      <point x="248" y="232" type="curve" smooth="yes"/>
      <point x="199" y="232"/>
      <point x="140" y="211"/>
      <point x="90" y="176" type="curve"/>
      <point x="101" y="329"/>
      <point x="176" y="421"/>
      <point x="296" y="421" type="curve" smooth="yes"/>
      <point x="326" y="421"/>
      <point x="353" y="417"/>
      <point x="391" y="407" type="curve"/>
      <point x="391" y="442" type="line"/>
      <point x="355" y="451"/>
      <point x="326" y="455"/>
      <point x="296" y="455" type="curve" smooth="yes"/>
      <point x="144" y="455"/>
      <point x="55" y="338"/>
      <point x="55" y="140" type="curve" smooth="yes"/>
      <point x="55" y="-25"/>
      <point x="121" y="-108"/>
    </contour>
    <contour>
      <point x="249" y="-74" type="curve" smooth="yes"/>
      <point x="143" y="-74"/>
      <point x="91" y="-6"/>
      <point x="89" y="135" type="curve"/>
      <point x="136" y="174"/>
      <point x="198" y="198"/>
      <point x="248" y="198" type="curve" smooth="yes"/>
      <point x="339" y="198"/>
      <point x="393" y="152"/>
      <point x="393" y="73" type="curve" smooth="yes"/>
      <point x="393" y="-15"/>
      <point x="336" y="-74"/>
    </contour>
  </outline>
</glyph>
<glyph name="eightinferior" format="1">
  <advance width="471"/>
  <unicode hex="2088"/>
  <outline>
    <contour>
      <point x="235" y="-103" type="curve" smooth="yes"/>
      <point x="343" y="-103"/>
      <point x="419" y="-53"/>
      <point x="419" y="40" type="curve" smooth="yes"/>
      <point x="419" y="115"/>
      <point x="369" y="150"/>
      <point x="309" y="173" type="curve"/>
      <point x="347" y="194"/>
      <point x="397" y="236"/>
      <point x="397" y="315" type="curve" smooth="yes"/>
      <point x="397" y="412"/>
      <point x="328" y="454"/>
      <point x="235" y="454" type="curve" smooth="yes"/>
      <point x="141" y="454"/>
      <point x="71" y="411"/>
      <point x="71" y="315" type="curve" smooth="yes"/>
      <point x="71" y="250"/>
      <point x="105" y="215"/>
      <point x="150" y="192" type="curve"/>
      <point x="109" y="173"/>
      <point x="54" y="130"/>
      <point x="54" y="44" type="curve" smooth="yes"/>
      <point x="54" y="-58"/>
      <point x="126" y="-103"/>
    </contour>
    <contour>
      <point x="235" y="-69" type="curve" smooth="yes"/>
      <point x="146" y="-69"/>
      <point x="88" y="-34"/>
      <point x="88" y="44" type="curve" smooth="yes"/>
      <point x="88" y="136"/>
      <point x="168" y="167"/>
      <point x="193" y="175" type="curve"/>
      <point x="209" y="169"/>
      <point x="225" y="164"/>
      <point x="241" y="159" type="curve" smooth="yes"/>
      <point x="313" y="138"/>
      <point x="385" y="117"/>
      <point x="385" y="40" type="curve" smooth="yes"/>
      <point x="385" y="-31"/>
      <point x="323" y="-69"/>
    </contour>
    <contour>
      <point x="267" y="187" type="curve"/>
      <point x="262" y="188"/>
      <point x="257" y="190"/>
      <point x="251" y="192" type="curve" smooth="yes"/>
      <point x="179" y="214"/>
      <point x="105" y="235"/>
      <point x="105" y="315" type="curve" smooth="yes"/>
      <point x="105" y="387"/>
      <point x="161" y="420"/>
      <point x="235" y="420" type="curve" smooth="yes"/>
      <point x="308" y="420"/>
      <point x="363" y="388"/>
      <point x="363" y="315" type="curve" smooth="yes"/>
      <point x="363" y="232"/>
      <point x="292" y="197"/>
    </contour>
  </outline>
</glyph>
<glyph name="franc" format="1">
  <advance width="651"/>
  <unicode hex="20A3"/>
  <outline>
    <contour>
      <point x="152" y="0" type="line"/>
      <point x="186" y="0" type="line"/>
      <point x="186" y="706" type="line"/>
      <point x="600" y="706" type="line"/>
      <point x="600" y="740" type="line"/>
      <point x="152" y="740" type="line"/>
    </contour>
    <contour>
      <point x="38" y="141" type="line"/>
      <point x="306" y="141" type="line"/>
      <point x="306" y="175" type="line"/>
      <point x="38" y="175" type="line"/>
    </contour>
    <contour>
      <point x="167" y="361" type="line"/>
      <point x="563" y="361" type="line"/>
      <point x="563" y="395" type="line"/>
      <point x="167" y="395" type="line"/>
    </contour>
  </outline>
</glyph>
<glyph name="lira" format="1">
  <advance width="646"/>
  <unicode hex="20A4"/>
  <outline>
    <contour>
      <point x="70" y="0" type="line"/>
      <point x="576" y="0" type="line"/>
      <point x="576" y="34" type="line"/>
      <point x="272" y="34" type="line"/>
      <point x="272" y="528" type="line" smooth="yes"/>
      <point x="272" y="658"/>
      <point x="313" y="710"/>
      <point x="427" y="710" type="curve" smooth="yes"/>
      <point x="466" y="710"/>
      <point x="519" y="701"/>
      <point x="579" y="683" type="curve"/>
      <point x="589" y="715" type="line"/>
      <point x="524" y="735"/>
      <point x="469" y="744"/>
      <point x="426" y="744" type="curve" smooth="yes"/>
      <point x="288" y="744"/>
      <point x="238" y="675"/>
      <point x="238" y="528" type="curve" smooth="yes"/>
      <point x="238" y="34" type="line"/>
      <point x="70" y="34" type="line"/>
    </contour>
    <contour>
      <point x="70" y="264" type="line"/>
      <point x="502" y="264" type="line"/>
      <point x="502" y="298" type="line"/>
      <point x="70" y="298" type="line"/>
    </contour>
    <contour>
      <point x="70" y="433" type="line"/>
      <point x="502" y="433" type="line"/>
      <point x="502" y="467" type="line"/>
      <point x="70" y="467" type="line"/>
    </contour>
  </outline>
</glyph>
<glyph name="Euro" format="1">
  <advance width="625"/>
  <unicode hex="20AC"/>
  <outline>
    <contour>
      <point x="512" y="-10" type="curve" smooth="yes"/>
      <point x="537" y="-10"/>
      <point x="548" y="-10"/>
      <point x="559" y="-9" type="curve"/>
      <point x="559" y="26" type="line"/>
      <point x="537" y="25"/>
      <point x="517" y="24"/>
      <point x="509" y="24" type="curve" smooth="yes"/>
      <point x="275" y="24"/>
      <point x="179" y="129"/>
      <point x="179" y="370" type="curve" smooth="yes"/>
      <point x="179" y="621"/>
      <point x="271" y="715"/>
      <point x="515" y="715" type="curve" smooth="yes"/>
      <point x="537" y="715"/>
      <point x="549" y="714"/>
      <point x="559" y="713" type="curve"/>
      <point x="579" y="747" type="line"/>
      <point x="556" y="748"/>
      <point x="541" y="749"/>
      <point x="510" y="749" type="curve" smooth="yes"/>
      <point x="249" y="749"/>
      <point x="145" y="644"/>
      <point x="145" y="370" type="curve" smooth="yes"/>
      <point x="145" y="104"/>
      <point x="255" y="-7"/>
    </contour>
    <contour>
      <point x="52" y="270" type="line"/>
      <point x="427" y="270" type="line"/>
      <point x="443" y="303" type="line"/>
      <point x="52" y="303" type="line"/>
    </contour>
    <contour>
      <point x="52" y="437" type="line"/>
      <point x="469" y="437" type="line"/>
      <point x="485" y="470" type="line"/>
      <point x="52" y="470" type="line"/>
    </contour>
  </outline>
</glyph>
<glyph name="estimated" format="1">
  <advance width="692"/>
  <unicode hex="212E"/>
  <outline>
    <contour>
      <point x="353" y="1" type="curve" smooth="yes"/>
      <point x="457" y="1"/>
      <point x="536" y="48"/>
      <point x="611" y="154" type="curve"/>
      <point x="571" y="178" type="line"/>
      <point x="519" y="87"/>
      <point x="447" y="42"/>
      <point x="353" y="42" type="curve" smooth="yes"/>
      <point x="289" y="42"/>
      <point x="237" y="64"/>
      <point x="194" y="108" type="curve"/>
      <point x="194" y="313" type="line"/>
      <point x="641" y="313" type="line"/>
      <point x="632" y="504"/>
      <point x="520" y="626"/>
      <point x="353" y="626" type="curve" smooth="yes"/>
      <point x="184" y="626"/>
      <point x="66" y="497"/>
      <point x="66" y="313" type="curve" smooth="yes"/>
      <point x="66" y="135"/>
      <point x="189" y="1"/>
    </contour>
    <contour>
      <point x="194" y="354" type="line"/>
      <point x="194" y="518" type="line"/>
      <point x="237" y="563"/>
      <point x="289" y="586"/>
      <point x="352" y="586" type="curve" smooth="yes"/>
      <point x="413" y="586"/>
      <point x="466" y="563"/>
      <point x="513" y="518" type="curve"/>
      <point x="513" y="354" type="line"/>
    </contour>
  </outline>
</glyph>
<glyph name="arrowleft" format="1">
  <advance width="740"/>
  <unicode hex="2190"/>
  <outline>
    <contour>
      <point x="310" y="121" type="line"/>
      <point x="332" y="142" type="line"/>
      <point x="73" y="392" type="line"/>
      <point x="679" y="386" type="line"/>
      <point x="679" y="420" type="line"/>
      <point x="73" y="414" type="line"/>
      <point x="332" y="664" type="line"/>
      <point x="310" y="685" type="line"/>
      <point x="33" y="405" type="line"/>
      <point x="33" y="401" type="line"/>
    </contour>
  </outline>
</glyph>
<glyph name="arrowup" format="1">
  <advance width="628"/>
  <unicode hex="2191"/>
  <outline>
    <contour>
      <point x="297" y="75" type="line"/>
      <point x="331" y="75" type="line"/>
      <point x="325" y="681" type="line"/>
      <point x="575" y="422" type="line"/>
      <point x="596" y="444" type="line"/>
      <point x="316" y="721" type="line"/>
      <point x="312" y="721" type="line"/>
      <point x="32" y="444" type="line"/>
      <point x="53" y="422" type="line"/>
      <point x="303" y="681" type="line"/>
    </contour>
  </outline>
</glyph>
<glyph name="arrowdown" format="1">
  <advance width="626"/>
  <unicode hex="2193"/>
  <outline>
    <contour>
      <point x="311" y="75" type="line"/>
      <point x="315" y="75" type="line"/>
      <point x="595" y="352" type="line"/>
      <point x="574" y="374" type="line"/>
      <point x="324" y="114" type="line"/>
      <point x="330" y="721" type="line"/>
      <point x="296" y="721" type="line"/>
      <point x="302" y="114" type="line"/>
      <point x="52" y="374" type="line"/>
      <point x="31" y="352" type="line"/>
    </contour>
  </outline>
</glyph>
<glyph name="radical" format="1">
  <advance width="697"/>
  <unicode hex="221A"/>
  <outline>
    <contour>
      <point x="358" y="0" type="line"/>
      <point x="409" y="0" type="line"/>
      <point x="679" y="848" type="line"/>
      <point x="645" y="848" type="line"/>
      <point x="382" y="23" type="line"/>
      <point x="148" y="479" type="line"/>
      <point x="24" y="423" type="line"/>
      <point x="38" y="393" type="line"/>
      <point x="132" y="435" type="line"/>
    </contour>
  </outline>
</glyph>
<glyph name="infinity" format="1">
  <advance width="897"/>
  <unicode hex="221E"/>
  <outline>
    <contour>
      <point x="236" y="147" type="curve" smooth="yes"/>
      <point x="331" y="147"/>
      <point x="386" y="213"/>
      <point x="448" y="289" type="curve"/>
      <point x="539" y="179"/>
      <point x="588" y="147"/>
      <point x="661" y="147" type="curve" smooth="yes"/>
      <point x="762" y="147"/>
      <point x="833" y="216"/>
      <point x="833" y="314" type="curve" smooth="yes"/>
      <point x="833" y="404"/>
      <point x="759" y="472"/>
      <point x="661" y="472" type="curve" smooth="yes"/>
      <point x="582" y="472"/>
      <point x="507" y="426"/>
      <point x="448" y="345" type="curve"/>
      <point x="390" y="427"/>
      <point x="314" y="472"/>
      <point x="236" y="472" type="curve" smooth="yes"/>
      <point x="138" y="472"/>
      <point x="64" y="404"/>
      <point x="64" y="314" type="curve" smooth="yes"/>
      <point x="64" y="216"/>
      <point x="135" y="147"/>
    </contour>
    <contour>
      <point x="236" y="181" type="curve" smooth="yes"/>
      <point x="155" y="181"/>
      <point x="98" y="236"/>
      <point x="98" y="314" type="curve" smooth="yes"/>
      <point x="98" y="384"/>
      <point x="158" y="438"/>
      <point x="236" y="438" type="curve" smooth="yes"/>
      <point x="306" y="438"/>
      <point x="372" y="396"/>
      <point x="426" y="316" type="curve"/>
      <point x="339" y="213"/>
      <point x="294" y="181"/>
    </contour>
    <contour>
      <point x="661" y="181" type="curve" smooth="yes"/>
      <point x="603" y="181"/>
      <point x="557" y="214"/>
      <point x="471" y="316" type="curve"/>
      <point x="524" y="396"/>
      <point x="591" y="438"/>
      <point x="661" y="438" type="curve" smooth="yes"/>
      <point x="739" y="438"/>
      <point x="799" y="384"/>
      <point x="799" y="314" type="curve" smooth="yes"/>
      <point x="799" y="236"/>
      <point x="742" y="181"/>
    </contour>
  </outline>
</glyph>
<glyph name="integral" format="1">
  <advance width="310"/>
  <unicode hex="222B"/>
  <outline>
    <contour>
      <point x="92" y="-199" type="curve" smooth="yes"/>
      <point x="149" y="-199"/>
      <point x="201" y="-176"/>
      <point x="201" y="-92" type="curve" smooth="yes"/>
      <point x="201" y="-87"/>
      <point x="200" y="-81"/>
      <point x="200" y="-75" type="curve" smooth="yes"/>
      <point x="148" y="626" type="line"/>
      <point x="147" y="632"/>
      <point x="147" y="638"/>
      <point x="147" y="644" type="curve" smooth="yes"/>
      <point x="147" y="709"/>
      <point x="179" y="729"/>
      <point x="219" y="729" type="curve" smooth="yes"/>
      <point x="238" y="729"/>
      <point x="259" y="725"/>
      <point x="279" y="718" type="curve"/>
      <point x="281" y="725"/>
      <point x="282" y="735"/>
      <point x="284" y="746" type="curve"/>
      <point x="260" y="754"/>
      <point x="237" y="757"/>
      <point x="216" y="757" type="curve" smooth="yes"/>
      <point x="155" y="757"/>
      <point x="113" y="722"/>
      <point x="113" y="643" type="curve" smooth="yes"/>
      <point x="113" y="637"/>
      <point x="113" y="630"/>
      <point x="114" y="624" type="curve"/>
      <point x="167" y="-75" type="line"/>
      <point x="167" y="-89" type="line" smooth="yes"/>
      <point x="167" y="-150"/>
      <point x="134" y="-166"/>
      <point x="89" y="-166" type="curve" smooth="yes"/>
      <point x="71" y="-166"/>
      <point x="51" y="-163"/>
      <point x="31" y="-160" type="curve"/>
      <point x="25" y="-190" type="line"/>
      <point x="46" y="-195"/>
      <point x="69" y="-199"/>
    </contour>
  </outline>
</glyph>
<glyph name="approxequal" format="1">
  <advance width="526"/>
  <unicode hex="2248"/>
  <outline>
    <contour>
      <point x="81" y="441" type="line"/>
      <point x="113" y="456"/>
      <point x="143" y="466"/>
      <point x="182" y="466" type="curve" smooth="yes"/>
      <point x="241" y="466"/>
      <point x="285" y="432"/>
      <point x="344" y="432" type="curve" smooth="yes"/>
      <point x="383" y="432"/>
      <point x="413" y="448"/>
      <point x="445" y="458" type="curve"/>
      <point x="445" y="492" type="line"/>
      <point x="413" y="477"/>
      <point x="383" y="466"/>
      <point x="344" y="466" type="curve" smooth="yes"/>
      <point x="285" y="466"/>
      <point x="241" y="500"/>
      <point x="182" y="500" type="curve" smooth="yes"/>
      <point x="143" y="500"/>
      <point x="113" y="487"/>
      <point x="81" y="477" type="curve"/>
    </contour>
    <contour>
      <point x="81" y="228" type="line"/>
      <point x="113" y="243"/>
      <point x="143" y="253"/>
      <point x="182" y="253" type="curve" smooth="yes"/>
      <point x="241" y="253"/>
      <point x="285" y="219"/>
      <point x="344" y="219" type="curve" smooth="yes"/>
      <point x="383" y="219"/>
      <point x="413" y="235"/>
      <point x="445" y="245" type="curve"/>
      <point x="445" y="279" type="line"/>
      <point x="413" y="264"/>
      <point x="383" y="253"/>
      <point x="344" y="253" type="curve" smooth="yes"/>
      <point x="285" y="253"/>
      <point x="241" y="287"/>
      <point x="182" y="287" type="curve" smooth="yes"/>
      <point x="143" y="287"/>
      <point x="113" y="274"/>
      <point x="81" y="264" type="curve"/>
    </contour>
  </outline>
</glyph>
<glyph name="greaterequal" format="1">
  <advance width="530"/>
  <unicode hex="2265"/>
  <outline>
    <contour>
      <point x="92" y="188" type="line"/>
      <point x="455" y="352" type="line"/>
      <point x="455" y="372" type="line"/>
      <point x="420" y="372" type="line"/>
      <point x="92" y="226" type="line"/>
    </contour>
    <contour>
      <point x="89" y="508" type="line"/>
      <point x="420" y="362" type="line"/>
      <point x="455" y="362" type="line"/>
      <point x="455" y="382" type="line"/>
      <point x="89" y="546" type="line"/>
    </contour>
    <contour>
      <point x="77" y="86" type="line"/>
      <point x="441" y="86" type="line"/>
      <point x="441" y="120" type="line"/>
      <point x="77" y="120" type="line"/>
    </contour>
  </outline>
</glyph>
<glyph name="Agrave.sc" format="1">
  <advance width="609"/>
  <outline>
    <contour>
      <point x="20" y="0" type="line"/>
      <point x="56" y="0" type="line"/>
      <point x="141" y="190" type="line"/>
      <point x="468" y="190" type="line"/>
      <point x="553" y="0" type="line"/>
      <point x="589" y="0" type="line"/>
      <point x="589" y="4" type="line"/>
      <point x="333" y="577" type="line"/>
      <point x="276" y="577" type="line"/>
      <point x="20" y="4" type="line"/>
    </contour>
    <contour>
      <point x="154" y="222" type="line"/>
      <point x="260" y="457" type="line"/>
      <point x="302" y="553" type="line"/>
      <point x="306" y="553" type="line"/>
      <point x="349" y="457" type="line"/>
      <point x="454" y="222" type="line"/>
    </contour>
    <contour>
      <point x="324" y="639" type="line"/>
      <point x="258" y="729" type="line"/>
      <point x="220" y="729" type="line"/>
      <point x="294" y="628" type="line"/>
    </contour>
  </outline>
</glyph>
<glyph name="Ainvertedbreve.sc" format="1">
  <advance width="609"/>
  <outline>
    <contour>
      <point x="161" y="636" type="curve"/>
      <point x="193" y="636" type="line"/>
      <point x="193" y="684"/>
      <point x="235" y="712"/>
      <point x="305" y="712" type="curve" smooth="yes"/>
      <point x="375" y="712"/>
      <point x="417" y="684"/>
      <point x="417" y="636" type="curve"/>
      <point x="449" y="636" type="line"/>
      <point x="449" y="701"/>
      <point x="395" y="742"/>
      <point x="305" y="742" type="curve" smooth="yes"/>
      <point x="215" y="742"/>
      <point x="161" y="701"/>
    </contour>
    <contour>
      <point x="20" y="0" type="line"/>
      <point x="56" y="0" type="line"/>
      <point x="141" y="190" type="line"/>
      <point x="468" y="190" type="line"/>
      <point x="553" y="0" type="line"/>
      <point x="589" y="0" type="line"/>
      <point x="589" y="4" type="line"/>
      <point x="333" y="577" type="line"/>
      <point x="276" y="577" type="line"/>
      <point x="20" y="4" type="line"/>
    </contour>
    <contour>
      <point x="154" y="222" type="line"/>
      <point x="260" y="457" type="line"/>
      <point x="302" y="553" type="line"/>
      <point x="306" y="553" type="line"/>
      <point x="349" y="457" type="line"/>
      <point x="454" y="222" type="line"/>
    </contour>
  </outline>
</glyph>
<glyph name="Aring.sc" format="1">
  <advance width="609"/>
  <outline>
    <contour>
      <point x="20" y="0" type="line"/>
      <point x="56" y="0" type="line"/>
      <point x="141" y="190" type="line"/>
      <point x="468" y="190" type="line"/>
      <point x="553" y="0" type="line"/>
      <point x="589" y="0" type="line"/>
      <point x="589" y="4" type="line"/>
      <point x="333" y="577" type="line"/>
      <point x="276" y="577" type="line"/>
      <point x="20" y="4" type="line"/>
    </contour>
    <contour>
      <point x="154" y="222" type="line"/>
      <point x="260" y="457" type="line"/>
      <point x="302" y="553" type="line"/>
      <point x="306" y="553" type="line"/>
      <point x="349" y="457" type="line"/>
      <point x="454" y="222" type="line"/>
    </contour>
    <contour>
      <point x="307" y="632" type="curve" smooth="yes"/>
      <point x="365" y="632"/>
      <point x="409" y="667"/>
      <point x="409" y="714" type="curve" smooth="yes"/>
      <point x="409" y="762"/>
      <point x="365" y="799"/>
      <point x="307" y="799" type="curve" smooth="yes"/>
      <point x="248" y="799"/>
      <point x="203" y="762"/>
      <point x="203" y="714" type="curve" smooth="yes"/>
      <point x="203" y="667"/>
      <point x="248" y="632"/>
    </contour>
    <contour>
      <point x="307" y="660" type="curve" smooth="yes"/>
      <point x="262" y="660"/>
      <point x="234" y="680"/>
      <point x="234" y="714" type="curve" smooth="yes"/>
      <point x="234" y="749"/>
      <point x="262" y="771"/>
      <point x="307" y="771" type="curve" smooth="yes"/>
      <point x="351" y="771"/>
      <point x="378" y="749"/>
      <point x="378" y="714" type="curve" smooth="yes"/>
      <point x="378" y="680"/>
      <point x="351" y="660"/>
    </contour>
  </outline>
</glyph>
<glyph name="Dcaron.sc" format="1">
  <advance width="662"/>
  <outline>
    <contour>
      <point x="266" y="-7" type="curve" smooth="yes"/>
      <point x="495" y="-7"/>
      <point x="599" y="86"/>
      <point x="599" y="289" type="curve" smooth="yes"/>
      <point x="599" y="492"/>
      <point x="495" y="583"/>
      <point x="266" y="583" type="curve" smooth="yes"/>
      <point x="226" y="583"/>
      <point x="136" y="580"/>
      <point x="99" y="577" type="curve"/>
      <point x="99" y="8" type="line"/>
      <point x="121" y="-1"/>
      <point x="188" y="-7"/>
    </contour>
    <contour>
      <point x="269" y="25" type="curve" smooth="yes"/>
      <point x="219" y="25"/>
      <point x="189" y="27"/>
      <point x="133" y="34" type="curve"/>
      <point x="133" y="544" type="line"/>
      <point x="169" y="547"/>
      <point x="233" y="550"/>
      <point x="267" y="550" type="curve" smooth="yes"/>
      <point x="472" y="550"/>
      <point x="565" y="469"/>
      <point x="565" y="289" type="curve" smooth="yes"/>
      <point x="565" y="109"/>
      <point x="471" y="25"/>
    </contour>
    <contour>
      <point x="300" y="639" type="line"/>
      <point x="432" y="695" type="line"/>
      <point x="432" y="731" type="line"/>
      <point x="300" y="675" type="line"/>
      <point x="168" y="731" type="line"/>
      <point x="168" y="695" type="line"/>
    </contour>
  </outline>
</glyph>
<glyph name="Ebreve.sc" format="1">
  <advance width="555"/>
  <outline>
    <contour>
      <point x="297" y="636" type="curve" smooth="yes"/>
      <point x="387" y="636"/>
      <point x="441" y="677"/>
      <point x="441" y="742" type="curve"/>
      <point x="409" y="742" type="line"/>
      <point x="409" y="694"/>
      <point x="366" y="666"/>
      <point x="297" y="666" type="curve" smooth="yes"/>
      <point x="227" y="666"/>
      <point x="185" y="694"/>
      <point x="185" y="742" type="curve"/>
      <point x="153" y="742" type="line"/>
      <point x="153" y="677"/>
      <point x="207" y="636"/>
    </contour>
    <contour>
      <point x="100" y="0" type="line"/>
      <point x="496" y="0" type="line"/>
      <point x="496" y="32" type="line"/>
      <point x="134" y="32" type="line"/>
      <point x="134" y="279" type="line"/>
      <point x="474" y="279" type="line"/>
      <point x="474" y="311" type="line"/>
      <point x="134" y="311" type="line"/>
      <point x="134" y="545" type="line"/>
      <point x="489" y="545" type="line"/>
      <point x="489" y="577" type="line"/>
      <point x="100" y="577" type="line"/>
    </contour>
  </outline>
</glyph>
<glyph name="Ecaron.sc" format="1">
  <advance width="555"/>
  <outline>
    <contour>
      <point x="100" y="0" type="line"/>
      <point x="496" y="0" type="line"/>
      <point x="496" y="32" type="line"/>
      <point x="134" y="32" type="line"/>
      <point x="134" y="279" type="line"/>
      <point x="474" y="279" type="line"/>
      <point x="474" y="311" type="line"/>
      <point x="134" y="311" type="line"/>
      <point x="134" y="545" type="line"/>
      <point x="489" y="545" type="line"/>
      <point x="489" y="577" type="line"/>
      <point x="100" y="577" type="line"/>
    </contour>
    <contour>
      <point x="298" y="639" type="line"/>
      <point x="429" y="695" type="line"/>
      <point x="429" y="731" type="line"/>
      <point x="298" y="675" type="line"/>
      <point x="166" y="731" type="line"/>
      <point x="166" y="695" type="line"/>
    </contour>
  </outline>
</glyph>
<glyph name="Edblgrave.sc" format="1">
  <advance width="555"/>
  <outline>
    <contour>
      <point x="100" y="0" type="line"/>
      <point x="496" y="0" type="line"/>
      <point x="496" y="32" type="line"/>
      <point x="134" y="32" type="line"/>
      <point x="134" y="279" type="line"/>
      <point x="474" y="279" type="line"/>
      <point x="474" y="311" type="line"/>
      <point x="134" y="311" type="line"/>
      <point x="134" y="545" type="line"/>
      <point x="489" y="545" type="line"/>
      <point x="489" y="577" type="line"/>
      <point x="100" y="577" type="line"/>
    </contour>
    <contour>
      <point x="228" y="620" type="line"/>
      <point x="259" y="631" type="line"/>
      <point x="192" y="721" type="line"/>
      <point x="155" y="721" type="line"/>
    </contour>
    <contour>
      <point x="339" y="620" type="line"/>
      <point x="370" y="631" type="line"/>
      <point x="303" y="721" type="line"/>
      <point x="266" y="721" type="line"/>
    </contour>
  </outline>
</glyph>
<glyph name="Edotbelow.sc" format="1">
  <advance width="555"/>
  <outline>
    <contour>
      <point x="313" y="-135" type="curve" smooth="yes"/>
      <point x="332" y="-135"/>
      <point x="347" y="-127"/>
      <point x="347" y="-104" type="curve" smooth="yes"/>
      <point x="347" y="-81"/>
      <point x="332" y="-72"/>
      <point x="313" y="-72" type="curve" smooth="yes"/>
      <point x="293" y="-72"/>
      <point x="280" y="-82"/>
      <point x="280" y="-104" type="curve" smooth="yes"/>
      <point x="280" y="-126"/>
      <point x="293" y="-135"/>
    </contour>
    <contour>
      <point x="100" y="0" type="line"/>
      <point x="496" y="0" type="line"/>
      <point x="496" y="32" type="line"/>
      <point x="134" y="32" type="line"/>
      <point x="134" y="279" type="line"/>
      <point x="474" y="279" type="line"/>
      <point x="474" y="311" type="line"/>
      <point x="134" y="311" type="line"/>
      <point x="134" y="545" type="line"/>
      <point x="489" y="545" type="line"/>
      <point x="489" y="577" type="line"/>
      <point x="100" y="577" type="line"/>
    </contour>
  </outline>
</glyph>
<glyph name="Eng.sc" format="1">
  <advance width="707"/>
  <outline>
    <contour>
      <point x="536" y="-144" type="line"/>
      <point x="576" y="-92"/>
      <point x="607" y="-4"/>
      <point x="607" y="60" type="curve" smooth="yes"/>
      <point x="607" y="577" type="line"/>
      <point x="573" y="577" type="line"/>
      <point x="573" y="54" type="line"/>
      <point x="569" y="54" type="line"/>
      <point x="513" y="126" type="line"/>
      <point x="132" y="577" type="line"/>
      <point x="100" y="577" type="line"/>
      <point x="100" y="0" type="line"/>
      <point x="133" y="0" type="line"/>
      <point x="133" y="522" type="line"/>
      <point x="138" y="522" type="line"/>
      <point x="187" y="457" type="line"/>
      <point x="565" y="12" type="line"/>
      <point x="561" y="-26"/>
      <point x="534" y="-93"/>
      <point x="508" y="-137" type="curve"/>
    </contour>
  </outline>
</glyph>
<glyph name="Etilde.sc" format="1">
  <advance width="555"/>
  <outline>
    <contour>
      <point x="158" y="658" type="line"/>
      <point x="184" y="679"/>
      <point x="211" y="687"/>
      <point x="238" y="687" type="curve" smooth="yes"/>
      <point x="282" y="687"/>
      <point x="328" y="654"/>
      <point x="375" y="654" type="curve" smooth="yes"/>
      <point x="414" y="654"/>
      <point x="452" y="669"/>
      <point x="482" y="694" type="curve"/>
      <point x="462" y="713" type="line"/>
      <point x="435" y="694"/>
      <point x="406" y="684"/>
      <point x="377" y="684" type="curve" smooth="yes"/>
      <point x="327" y="684"/>
      <point x="292" y="717"/>
      <point x="237" y="717" type="curve" smooth="yes"/>
      <point x="203" y="717"/>
      <point x="170" y="705"/>
      <point x="138" y="677" type="curve"/>
    </contour>
    <contour>
      <point x="100" y="0" type="line"/>
      <point x="496" y="0" type="line"/>
      <point x="496" y="32" type="line"/>
      <point x="134" y="32" type="line"/>
      <point x="134" y="279" type="line"/>
      <point x="474" y="279" type="line"/>
      <point x="474" y="311" type="line"/>
      <point x="134" y="311" type="line"/>
      <point x="134" y="545" type="line"/>
      <point x="489" y="545" type="line"/>
      <point x="489" y="577" type="line"/>
      <point x="100" y="577" type="line"/>
    </contour>
  </outline>
</glyph>
<glyph name="F.sc" format="1">
  <advance width="530"/>
  <outline>
    <contour>
      <point x="100" y="0" type="line"/>
      <point x="134" y="0" type="line"/>
      <point x="134" y="278" type="line"/>
      <point x="457" y="278" type="line"/>
      <point x="457" y="309" type="line"/>
      <point x="134" y="309" type="line"/>
      <point x="134" y="545" type="line"/>
      <point x="490" y="545" type="line"/>
      <point x="490" y="577" type="line"/>
      <point x="100" y="577" type="line"/>
    </contour>
  </outline>
</glyph>
<glyph name="Gbreve.sc" format="1">
  <advance width="593"/>
  <outline>
    <contour>
      <point x="344" y="-6" type="curve" smooth="yes"/>
      <point x="392" y="-6"/>
      <point x="469" y="6"/>
      <point x="520" y="21" type="curve"/>
      <point x="520" y="293" type="line"/>
      <point x="486" y="293" type="line"/>
      <point x="486" y="44" type="line"/>
      <point x="447" y="35"/>
      <point x="381" y="27"/>
      <point x="344" y="27" type="curve" smooth="yes"/>
      <point x="186" y="27"/>
      <point x="97" y="121"/>
      <point x="97" y="288" type="curve" smooth="yes"/>
      <point x="97" y="455"/>
      <point x="192" y="552"/>
      <point x="354" y="552" type="curve" smooth="yes"/>
      <point x="405" y="552"/>
      <point x="438" y="547"/>
      <point x="514" y="529" type="curve"/>
      <point x="514" y="562" type="line"/>
      <point x="453" y="577"/>
      <point x="404" y="584"/>
      <point x="353" y="584" type="curve" smooth="yes"/>
      <point x="165" y="584"/>
      <point x="63" y="479"/>
      <point x="63" y="287" type="curve" smooth="yes"/>
      <point x="63" y="98"/>
      <point x="163" y="-6"/>
    </contour>
    <contour>
      <point x="318" y="636" type="curve" smooth="yes"/>
      <point x="407" y="636"/>
      <point x="461" y="677"/>
      <point x="461" y="742" type="curve"/>
      <point x="429" y="742" type="line"/>
      <point x="429" y="694"/>
      <point x="387" y="666"/>
      <point x="318" y="666" type="curve" smooth="yes"/>
      <point x="248" y="666"/>
      <point x="206" y="694"/>
      <point x="206" y="742" type="curve"/>
      <point x="174" y="742" type="line"/>
      <point x="174" y="677"/>
      <point x="228" y="636"/>
    </contour>
  </outline>
</glyph>
<glyph name="Hbar.sc" format="1">
  <advance width="700"/>
  <outline>
    <contour>
      <point x="19" y="428" type="line"/>
      <point x="104" y="428" type="line"/>
      <point x="104" y="0" type="line"/>
      <point x="138" y="0" type="line"/>
      <point x="138" y="281" type="line"/>
      <point x="562" y="281" type="line"/>
      <point x="562" y="0" type="line"/>
      <point x="596" y="0" type="line"/>
      <point x="596" y="428" type="line"/>
      <point x="682" y="428" type="line"/>
      <point x="682" y="458" type="line"/>
      <point x="596" y="458" type="line"/>
      <point x="596" y="577" type="line"/>
      <point x="562" y="577" type="line"/>
      <point x="562" y="458" type="line"/>
      <point x="138" y="458" type="line"/>
      <point x="138" y="577" type="line"/>
      <point x="104" y="577" type="line"/>
      <point x="104" y="458" type="line"/>
      <point x="19" y="458" type="line"/>
    </contour>
    <contour>
      <point x="138" y="312" type="line"/>
      <point x="138" y="428" type="line"/>
      <point x="562" y="428" type="line"/>
      <point x="562" y="312" type="line"/>
    </contour>
  </outline>
</glyph>
<glyph name="Hcircumflex.sc" format="1">
  <advance width="692"/>
  <outline>
    <contour>
      <point x="100" y="0" type="line"/>
      <point x="134" y="0" type="line"/>
      <point x="134" y="281" type="line"/>
      <point x="558" y="281" type="line"/>
      <point x="558" y="0" type="line"/>
      <point x="592" y="0" type="line"/>
      <point x="592" y="577" type="line"/>
      <point x="558" y="577" type="line"/>
      <point x="558" y="312" type="line"/>
      <point x="134" y="312" type="line"/>
      <point x="134" y="577" type="line"/>
      <point x="100" y="577" type="line"/>
    </contour>
    <contour>
      <point x="208" y="638" type="line"/>
      <point x="340" y="694" type="line"/>
      <point x="472" y="638" type="line"/>
      <point x="472" y="674" type="line"/>
      <point x="340" y="731" type="line"/>
      <point x="208" y="674" type="line"/>
    </contour>
  </outline>
</glyph>
<glyph name="Hdotbelow.sc" format="1">
  <advance width="692"/>
  <outline>
    <contour>
      <point x="100" y="0" type="line"/>
      <point x="134" y="0" type="line"/>
      <point x="134" y="281" type="line"/>
      <point x="558" y="281" type="line"/>
      <point x="558" y="0" type="line"/>
      <point x="592" y="0" type="line"/>
      <point x="592" y="577" type="line"/>
      <point x="558" y="577" type="line"/>
      <point x="558" y="312" type="line"/>
      <point x="134" y="312" type="line"/>
      <point x="134" y="577" type="line"/>
      <point x="100" y="577" type="line"/>
    </contour>
    <contour>
      <point x="357" y="-135" type="curve" smooth="yes"/>
      <point x="376" y="-135"/>
      <point x="390" y="-127"/>
      <point x="390" y="-104" type="curve" smooth="yes"/>
      <point x="390" y="-81"/>
      <point x="376" y="-72"/>
      <point x="357" y="-72" type="curve" smooth="yes"/>
      <point x="337" y="-72"/>
      <point x="324" y="-82"/>
      <point x="324" y="-104" type="curve" smooth="yes"/>
      <point x="324" y="-126"/>
      <point x="337" y="-135"/>
    </contour>
  </outline>
</glyph>
<glyph name="I.sc" format="1">
  <advance width="234"/>
  <outline>
    <contour>
      <point x="138" y="0" type="move" name="ogonek"/>
    </contour>
    <contour>
      <point x="124" y="760" type="move" name="topUC"/>
    </contour>
    <contour>
      <point x="124" y="0" type="move" name="bottom"/>
    </contour>
    <contour>
      <point x="100" y="0" type="line"/>
      <point x="134" y="0" type="line"/>
      <point x="134" y="577" type="line"/>
      <point x="100" y="577" type="line"/>
    </contour>
  </outline>
</glyph>
<glyph name="Ibreve.sc" format="1">
  <advance width="234"/>
  <outline>
    <contour>
      <point x="100" y="0" type="line"/>
      <point x="134" y="0" type="line"/>
      <point x="134" y="577" type="line"/>
      <point x="100" y="577" type="line"/>
    </contour>
    <contour>
      <point x="117" y="636" type="curve" smooth="yes"/>
      <point x="207" y="636"/>
      <point x="261" y="677"/>
      <point x="261" y="742" type="curve"/>
      <point x="229" y="742" type="line"/>
      <point x="229" y="694"/>
      <point x="187" y="666"/>
      <point x="117" y="666" type="curve" smooth="yes"/>
      <point x="47" y="666"/>
      <point x="5" y="694"/>
      <point x="5" y="742" type="curve"/>
      <point x="-27" y="742" type="line"/>
      <point x="-27" y="677"/>
      <point x="27" y="636"/>
    </contour>
  </outline>
</glyph>
<glyph name="Icircumflex.sc" format="1">
  <advance width="234"/>
  <outline>
    <contour>
      <point x="100" y="0" type="line"/>
      <point x="134" y="0" type="line"/>
      <point x="134" y="577" type="line"/>
      <point x="100" y="577" type="line"/>
    </contour>
    <contour>
      <point x="-14" y="638" type="line"/>
      <point x="118" y="694" type="line"/>
      <point x="249" y="638" type="line"/>
      <point x="249" y="674" type="line"/>
      <point x="118" y="731" type="line"/>
      <point x="-14" y="674" type="line"/>
    </contour>
  </outline>
</glyph>
<glyph name="Idieresis.sc" format="1">
  <advance width="234"/>
  <outline>
    <contour>
      <point x="100" y="0" type="line"/>
      <point x="134" y="0" type="line"/>
      <point x="134" y="577" type="line"/>
      <point x="100" y="577" type="line"/>
    </contour>
    <contour>
      <point x="2" y="650" type="curve" smooth="yes"/>
      <point x="18" y="650"/>
      <point x="33" y="658"/>
      <point x="33" y="679" type="curve" smooth="yes"/>
      <point x="33" y="700"/>
      <point x="18" y="708"/>
      <point x="2" y="708" type="curve" smooth="yes"/>
      <point x="-17" y="708"/>
      <point x="-29" y="699"/>
      <point x="-29" y="679" type="curve" smooth="yes"/>
      <point x="-29" y="659"/>
      <point x="-17" y="650"/>
    </contour>
    <contour>
      <point x="233" y="650" type="curve" smooth="yes"/>
      <point x="249" y="650"/>
      <point x="264" y="658"/>
      <point x="264" y="679" type="curve" smooth="yes"/>
      <point x="264" y="700"/>
      <point x="249" y="708"/>
      <point x="233" y="708" type="curve" smooth="yes"/>
      <point x="215" y="708"/>
      <point x="203" y="699"/>
      <point x="203" y="679" type="curve" smooth="yes"/>
      <point x="203" y="659"/>
      <point x="215" y="650"/>
    </contour>
  </outline>
</glyph>
<glyph name="Idotbelow.sc" format="1">
  <advance width="234"/>
  <outline>
    <contour>
      <point x="100" y="0" type="line"/>
      <point x="134" y="0" type="line"/>
      <point x="134" y="577" type="line"/>
      <point x="100" y="577" type="line"/>
    </contour>
    <contour>
      <point x="118" y="-135" type="curve" smooth="yes"/>
      <point x="137" y="-135"/>
      <point x="152" y="-127"/>
      <point x="152" y="-104" type="curve" smooth="yes"/>
      <point x="152" y="-81"/>
      <point x="137" y="-72"/>
      <point x="118" y="-72" type="curve" smooth="yes"/>
      <point x="98" y="-72"/>
      <point x="85" y="-82"/>
      <point x="85" y="-104" type="curve" smooth="yes"/>
      <point x="85" y="-126"/>
      <point x="98" y="-135"/>
    </contour>
  </outline>
</glyph>
<glyph name="Imacron.sc" format="1">
  <advance width="234"/>
  <outline>
    <contour>
      <point x="100" y="0" type="line"/>
      <point x="134" y="0" type="line"/>
      <point x="134" y="577" type="line"/>
      <point x="100" y="577" type="line"/>
    </contour>
    <contour>
      <point x="-12" y="657" type="line"/>
      <point x="249" y="657" type="line"/>
      <point x="249" y="688" type="line"/>
      <point x="-12" y="688" type="line"/>
    </contour>
  </outline>
</glyph>
<glyph name="Itilde.sc" format="1">
  <advance width="234"/>
  <outline>
    <contour>
      <point x="100" y="0" type="line"/>
      <point x="134" y="0" type="line"/>
      <point x="134" y="577" type="line"/>
      <point x="100" y="577" type="line"/>
    </contour>
    <contour>
      <point x="-23" y="658" type="line"/>
      <point x="4" y="679"/>
      <point x="30" y="687"/>
      <point x="57" y="687" type="curve" smooth="yes"/>
      <point x="102" y="687"/>
      <point x="147" y="654"/>
      <point x="194" y="654" type="curve" smooth="yes"/>
      <point x="233" y="654"/>
      <point x="271" y="669"/>
      <point x="301" y="694" type="curve"/>
      <point x="281" y="713" type="line"/>
      <point x="254" y="694"/>
      <point x="226" y="684"/>
      <point x="196" y="684" type="curve" smooth="yes"/>
      <point x="146" y="684"/>
      <point x="111" y="717"/>
      <point x="56" y="717" type="curve" smooth="yes"/>
      <point x="22" y="717"/>
      <point x="-10" y="705"/>
      <point x="-43" y="677" type="curve"/>
    </contour>
  </outline>
</glyph>
<glyph name="J.sc" format="1">
  <advance width="234"/>
  <outline>
    <contour>
      <point x="124" y="760" type="move" name="topUC"/>
    </contour>
    <contour>
      <point x="63" y="-140" type="line"/>
      <point x="121" y="-22"/>
      <point x="136" y="37"/>
      <point x="136" y="141" type="curve" smooth="yes"/>
      <point x="136" y="577" type="line"/>
      <point x="102" y="577" type="line"/>
      <point x="102" y="141" type="line" smooth="yes"/>
      <point x="102" y="35"/>
      <point x="86" y="-32"/>
      <point x="35" y="-125" type="curve"/>
    </contour>
  </outline>
</glyph>
<glyph name="Jcircumflex.sc" format="1">
  <advance width="233"/>
  <outline>
    <contour>
      <point x="62" y="-140" type="line"/>
      <point x="120" y="-22"/>
      <point x="135" y="37"/>
      <point x="135" y="141" type="curve" smooth="yes"/>
      <point x="135" y="577" type="line"/>
      <point x="101" y="577" type="line"/>
      <point x="101" y="141" type="line" smooth="yes"/>
      <point x="101" y="35"/>
      <point x="85" y="-32"/>
      <point x="34" y="-125" type="curve"/>
    </contour>
    <contour>
      <point x="-11" y="638" type="line"/>
      <point x="121" y="694" type="line"/>
      <point x="252" y="638" type="line"/>
      <point x="252" y="674" type="line"/>
      <point x="121" y="731" type="line"/>
      <point x="-11" y="674" type="line"/>
    </contour>
  </outline>
</glyph>
<glyph name="Lacute.sc" format="1">
  <advance width="483"/>
  <outline>
    <contour>
      <point x="100" y="0" type="line"/>
      <point x="463" y="0" type="line"/>
      <point x="463" y="32" type="line"/>
      <point x="134" y="32" type="line"/>
      <point x="134" y="577" type="line"/>
      <point x="100" y="577" type="line"/>
    </contour>
    <contour>
      <point x="129" y="628" type="line"/>
      <point x="202" y="729" type="line"/>
      <point x="165" y="729" type="line"/>
      <point x="98" y="633" type="line"/>
    </contour>
  </outline>
</glyph>
<glyph name="Lcaron.sc" format="1">
  <advance width="484"/>
  <outline>
    <contour>
      <point x="100" y="0" type="line"/>
      <point x="462" y="0" type="line"/>
      <point x="462" y="32" type="line"/>
      <point x="134" y="32" type="line"/>
      <point x="134" y="577" type="line"/>
      <point x="100" y="577" type="line"/>
    </contour>
    <contour>
      <point x="366" y="402" type="line"/>
      <point x="381" y="402" type="line"/>
      <point x="399" y="580" type="line"/>
      <point x="366" y="580" type="line"/>
    </contour>
  </outline>
</glyph>
<glyph name="Lslash.sc" format="1">
  <advance width="501"/>
  <outline>
    <contour>
      <point x="26" y="176" type="line"/>
      <point x="119" y="229" type="line"/>
      <point x="119" y="0" type="line"/>
      <point x="482" y="0" type="line"/>
      <point x="482" y="32" type="line"/>
      <point x="153" y="32" type="line"/>
      <point x="153" y="249" type="line"/>
      <point x="325" y="348" type="line"/>
      <point x="325" y="382" type="line"/>
      <point x="153" y="283" type="line"/>
      <point x="153" y="577" type="line"/>
      <point x="119" y="577" type="line"/>
      <point x="119" y="264" type="line"/>
      <point x="26" y="211" type="line"/>
    </contour>
  </outline>
</glyph>
<glyph name="N.sc" format="1">
  <advance width="707"/>
  <outline>
    <contour>
      <point x="350" y="760" type="move" name="topUC"/>
    </contour>
    <contour>
      <point x="365" y="0" type="move" name="bottom"/>
    </contour>
    <contour>
      <point x="100" y="0" type="line"/>
      <point x="133" y="0" type="line"/>
      <point x="133" y="522" type="line"/>
      <point x="138" y="522" type="line"/>
      <point x="187" y="457" type="line"/>
      <point x="574" y="0" type="line"/>
      <point x="607" y="0" type="line"/>
      <point x="607" y="577" type="line"/>
      <point x="573" y="577" type="line"/>
      <point x="573" y="54" type="line"/>
      <point x="569" y="54" type="line"/>
      <point x="513" y="126" type="line"/>
      <point x="132" y="577" type="line"/>
      <point x="100" y="577" type="line"/>
    </contour>
  </outline>
</glyph>
<glyph name="Nacute.sc" format="1">
  <advance width="707"/>
  <outline>
    <contour>
      <point x="100" y="0" type="line"/>
      <point x="133" y="0" type="line"/>
      <point x="133" y="522" type="line"/>
      <point x="138" y="522" type="line"/>
      <point x="187" y="457" type="line"/>
      <point x="574" y="0" type="line"/>
      <point x="607" y="0" type="line"/>
      <point x="607" y="577" type="line"/>
      <point x="573" y="577" type="line"/>
      <point x="573" y="54" type="line"/>
      <point x="569" y="54" type="line"/>
      <point x="513" y="126" type="line"/>
      <point x="132" y="577" type="line"/>
      <point x="100" y="577" type="line"/>
    </contour>
    <contour>
      <point x="361" y="628" type="line"/>
      <point x="434" y="729" type="line"/>
      <point x="397" y="729" type="line"/>
      <point x="330" y="633" type="line"/>
    </contour>
  </outline>
</glyph>
<glyph name="Ntilde.sc" format="1">
  <advance width="707"/>
  <outline>
    <contour>
      <point x="212" y="658" type="line"/>
      <point x="239" y="679"/>
      <point x="265" y="687"/>
      <point x="292" y="687" type="curve" smooth="yes"/>
      <point x="336" y="687"/>
      <point x="382" y="654"/>
      <point x="429" y="654" type="curve" smooth="yes"/>
      <point x="468" y="654"/>
      <point x="506" y="669"/>
      <point x="536" y="694" type="curve"/>
      <point x="516" y="713" type="line"/>
      <point x="489" y="694"/>
      <point x="461" y="684"/>
      <point x="431" y="684" type="curve" smooth="yes"/>
      <point x="381" y="684"/>
      <point x="346" y="717"/>
      <point x="291" y="717" type="curve" smooth="yes"/>
      <point x="257" y="717"/>
      <point x="224" y="705"/>
      <point x="192" y="677" type="curve"/>
    </contour>
    <contour>
      <point x="100" y="0" type="line"/>
      <point x="133" y="0" type="line"/>
      <point x="133" y="522" type="line"/>
      <point x="138" y="522" type="line"/>
      <point x="187" y="457" type="line"/>
      <point x="574" y="0" type="line"/>
      <point x="607" y="0" type="line"/>
      <point x="607" y="577" type="line"/>
      <point x="573" y="577" type="line"/>
      <point x="573" y="54" type="line"/>
      <point x="569" y="54" type="line"/>
      <point x="513" y="126" type="line"/>
      <point x="132" y="577" type="line"/>
      <point x="100" y="577" type="line"/>
    </contour>
  </outline>
</glyph>
<glyph name="O.sc" format="1">
  <advance width="675"/>
  <outline>
    <contour>
      <point x="313" y="-10" type="move" name="ogonek"/>
    </contour>
    <contour>
      <point x="313" y="760" type="move" name="topUC"/>
    </contour>
    <contour>
      <point x="313" y="0" type="move" name="bottom"/>
    </contour>
    <contour>
      <point x="338" y="-8" type="curve" smooth="yes"/>
      <point x="509" y="-8"/>
      <point x="612" y="95"/>
      <point x="612" y="288" type="curve" smooth="yes"/>
      <point x="612" y="480"/>
      <point x="509" y="585"/>
      <point x="338" y="585" type="curve" smooth="yes"/>
      <point x="166" y="585"/>
      <point x="63" y="480"/>
      <point x="63" y="288" type="curve" smooth="yes"/>
      <point x="63" y="95"/>
      <point x="166" y="-8"/>
    </contour>
    <contour>
      <point x="338" y="24" type="curve" smooth="yes"/>
      <point x="186" y="24"/>
      <point x="97" y="122"/>
      <point x="97" y="288" type="curve" smooth="yes"/>
      <point x="97" y="456"/>
      <point x="185" y="553"/>
      <point x="338" y="553" type="curve" smooth="yes"/>
      <point x="490" y="553"/>
      <point x="578" y="456"/>
      <point x="578" y="288" type="curve" smooth="yes"/>
      <point x="578" y="123"/>
      <point x="488" y="24"/>
    </contour>
  </outline>
</glyph>
<glyph name="Odblgrave.sc" format="1">
  <advance width="675"/>
  <outline>
    <contour>
      <point x="338" y="-8" type="curve" smooth="yes"/>
      <point x="509" y="-8"/>
      <point x="612" y="95"/>
      <point x="612" y="288" type="curve" smooth="yes"/>
      <point x="612" y="480"/>
      <point x="509" y="585"/>
      <point x="338" y="585" type="curve" smooth="yes"/>
      <point x="166" y="585"/>
      <point x="63" y="480"/>
      <point x="63" y="288" type="curve" smooth="yes"/>
      <point x="63" y="95"/>
      <point x="166" y="-8"/>
    </contour>
    <contour>
      <point x="338" y="24" type="curve" smooth="yes"/>
      <point x="186" y="24"/>
      <point x="97" y="122"/>
      <point x="97" y="288" type="curve" smooth="yes"/>
      <point x="97" y="456"/>
      <point x="185" y="553"/>
      <point x="338" y="553" type="curve" smooth="yes"/>
      <point x="490" y="553"/>
      <point x="578" y="456"/>
      <point x="578" y="288" type="curve" smooth="yes"/>
      <point x="578" y="123"/>
      <point x="488" y="24"/>
    </contour>
    <contour>
      <point x="298" y="631" type="line"/>
      <point x="232" y="721" type="line"/>
      <point x="194" y="721" type="line"/>
      <point x="268" y="620" type="line"/>
    </contour>
    <contour>
      <point x="409" y="631" type="line"/>
      <point x="343" y="721" type="line"/>
      <point x="305" y="721" type="line"/>
      <point x="379" y="620" type="line"/>
    </contour>
  </outline>
</glyph>
<glyph name="Ohungarumlaut.sc" format="1">
  <advance width="675"/>
  <outline>
    <contour>
      <point x="338" y="-8" type="curve" smooth="yes"/>
      <point x="509" y="-8"/>
      <point x="612" y="95"/>
      <point x="612" y="288" type="curve" smooth="yes"/>
      <point x="612" y="480"/>
      <point x="509" y="585"/>
      <point x="338" y="585" type="curve" smooth="yes"/>
      <point x="166" y="585"/>
      <point x="63" y="480"/>
      <point x="63" y="288" type="curve" smooth="yes"/>
      <point x="63" y="95"/>
      <point x="166" y="-8"/>
    </contour>
    <contour>
      <point x="338" y="24" type="curve" smooth="yes"/>
      <point x="186" y="24"/>
      <point x="97" y="122"/>
      <point x="97" y="288" type="curve" smooth="yes"/>
      <point x="97" y="456"/>
      <point x="185" y="553"/>
      <point x="338" y="553" type="curve" smooth="yes"/>
      <point x="490" y="553"/>
      <point x="578" y="456"/>
      <point x="578" y="288" type="curve" smooth="yes"/>
      <point x="578" y="123"/>
      <point x="488" y="24"/>
    </contour>
    <contour>
      <point x="292" y="620" type="line"/>
      <point x="366" y="721" type="line"/>
      <point x="329" y="721" type="line"/>
      <point x="262" y="631" type="line"/>
    </contour>
    <contour>
      <point x="404" y="620" type="line"/>
      <point x="477" y="721" type="line"/>
      <point x="440" y="721" type="line"/>
      <point x="373" y="631" type="line"/>
    </contour>
  </outline>
</glyph>
<glyph name="Oinvertedbreve.sc" format="1">
  <advance width="675"/>
  <outline>
    <contour>
      <point x="338" y="-8" type="curve" smooth="yes"/>
      <point x="509" y="-8"/>
      <point x="612" y="95"/>
      <point x="612" y="288" type="curve" smooth="yes"/>
      <point x="612" y="480"/>
      <point x="509" y="585"/>
      <point x="338" y="585" type="curve" smooth="yes"/>
      <point x="166" y="585"/>
      <point x="63" y="480"/>
      <point x="63" y="288" type="curve" smooth="yes"/>
      <point x="63" y="95"/>
      <point x="166" y="-8"/>
    </contour>
    <contour>
      <point x="338" y="24" type="curve" smooth="yes"/>
      <point x="186" y="24"/>
      <point x="97" y="122"/>
      <point x="97" y="288" type="curve" smooth="yes"/>
      <point x="97" y="456"/>
      <point x="185" y="553"/>
      <point x="338" y="553" type="curve" smooth="yes"/>
      <point x="490" y="553"/>
      <point x="578" y="456"/>
      <point x="578" y="288" type="curve" smooth="yes"/>
      <point x="578" y="123"/>
      <point x="488" y="24"/>
    </contour>
    <contour>
      <point x="480" y="636" type="line"/>
      <point x="480" y="701"/>
      <point x="427" y="742"/>
      <point x="337" y="742" type="curve" smooth="yes"/>
      <point x="247" y="742"/>
      <point x="193" y="701"/>
      <point x="193" y="636" type="curve"/>
      <point x="225" y="636" type="line"/>
      <point x="225" y="684"/>
      <point x="267" y="712"/>
      <point x="337" y="712" type="curve" smooth="yes"/>
      <point x="406" y="712"/>
      <point x="449" y="684"/>
      <point x="449" y="636" type="curve"/>
    </contour>
  </outline>
</glyph>
<glyph name="Omacron.sc" format="1">
  <advance width="675"/>
  <outline>
    <contour>
      <point x="338" y="-8" type="curve" smooth="yes"/>
      <point x="509" y="-8"/>
      <point x="612" y="95"/>
      <point x="612" y="288" type="curve" smooth="yes"/>
      <point x="612" y="480"/>
      <point x="509" y="585"/>
      <point x="338" y="585" type="curve" smooth="yes"/>
      <point x="166" y="585"/>
      <point x="63" y="480"/>
      <point x="63" y="288" type="curve" smooth="yes"/>
      <point x="63" y="95"/>
      <point x="166" y="-8"/>
    </contour>
    <contour>
      <point x="338" y="24" type="curve" smooth="yes"/>
      <point x="186" y="24"/>
      <point x="97" y="122"/>
      <point x="97" y="288" type="curve" smooth="yes"/>
      <point x="97" y="456"/>
      <point x="185" y="553"/>
      <point x="338" y="553" type="curve" smooth="yes"/>
      <point x="490" y="553"/>
      <point x="578" y="456"/>
      <point x="578" y="288" type="curve" smooth="yes"/>
      <point x="578" y="123"/>
      <point x="488" y="24"/>
    </contour>
    <contour>
      <point x="207" y="657" type="line"/>
      <point x="469" y="657" type="line"/>
      <point x="469" y="688" type="line"/>
      <point x="207" y="688" type="line"/>
    </contour>
  </outline>
</glyph>
<glyph name="Oogonek.sc" format="1">
  <advance width="675"/>
  <outline>
    <contour>
      <point x="320" y="-157" type="curve" smooth="yes"/>
      <point x="343" y="-157"/>
      <point x="368" y="-154"/>
      <point x="384" y="-148" type="curve"/>
      <point x="384" y="-124" type="line"/>
      <point x="365" y="-128"/>
      <point x="345" y="-132"/>
      <point x="326" y="-132" type="curve" smooth="yes"/>
      <point x="298" y="-132"/>
      <point x="279" y="-125"/>
      <point x="279" y="-98" type="curve" smooth="yes"/>
      <point x="279" y="-58"/>
      <point x="321" y="-31"/>
      <point x="385" y="-4" type="curve"/>
      <point x="495" y="6"/>
      <point x="612" y="80"/>
      <point x="612" y="288" type="curve" smooth="yes"/>
      <point x="612" y="480"/>
      <point x="509" y="585"/>
      <point x="338" y="585" type="curve" smooth="yes"/>
      <point x="166" y="585"/>
      <point x="63" y="480"/>
      <point x="63" y="288" type="curve" smooth="yes"/>
      <point x="63" y="102"/>
      <point x="158" y="0"/>
      <point x="318" y="-7" type="curve"/>
      <point x="262" y="-42"/>
      <point x="248" y="-64"/>
      <point x="248" y="-98" type="curve" smooth="yes"/>
      <point x="248" y="-140"/>
      <point x="270" y="-157"/>
    </contour>
    <contour>
      <point x="338" y="24" type="curve" smooth="yes"/>
      <point x="186" y="24"/>
      <point x="97" y="122"/>
      <point x="97" y="288" type="curve" smooth="yes"/>
      <point x="97" y="456"/>
      <point x="185" y="553"/>
      <point x="338" y="553" type="curve" smooth="yes"/>
      <point x="490" y="553"/>
      <point x="578" y="456"/>
      <point x="578" y="288" type="curve" smooth="yes"/>
      <point x="578" y="123"/>
      <point x="488" y="24"/>
    </contour>
  </outline>
</glyph>
<glyph name="Scaron.sc" format="1">
  <advance width="514"/>
  <outline>
    <contour>
      <point x="243" y="-8" type="curve" smooth="yes"/>
      <point x="385" y="-8"/>
      <point x="465" y="46"/>
      <point x="465" y="142" type="curve" smooth="yes"/>
      <point x="465" y="259"/>
      <point x="365" y="284"/>
      <point x="269" y="308" type="curve" smooth="yes"/>
      <point x="142" y="340"/>
      <point x="100" y="373"/>
      <point x="100" y="441" type="curve" smooth="yes"/>
      <point x="100" y="512"/>
      <point x="169" y="559"/>
      <point x="274" y="559" type="curve" smooth="yes"/>
      <point x="320" y="559"/>
      <point x="380" y="552"/>
      <point x="433" y="539" type="curve"/>
      <point x="432" y="572" type="line"/>
      <point x="377" y="584"/>
      <point x="318" y="591"/>
      <point x="273" y="591" type="curve" smooth="yes"/>
      <point x="149" y="591"/>
      <point x="66" y="531"/>
      <point x="66" y="441" type="curve" smooth="yes"/>
      <point x="66" y="354"/>
      <point x="115" y="311"/>
      <point x="256" y="276" type="curve" smooth="yes"/>
      <point x="343" y="254"/>
      <point x="431" y="235"/>
      <point x="431" y="142" type="curve" smooth="yes"/>
      <point x="431" y="67"/>
      <point x="362" y="24"/>
      <point x="243" y="24" type="curve" smooth="yes"/>
      <point x="195" y="24"/>
      <point x="120" y="34"/>
      <point x="52" y="48" type="curve"/>
      <point x="52" y="16" type="line"/>
      <point x="120" y="1"/>
      <point x="190" y="-8"/>
    </contour>
    <contour>
      <point x="131" y="695" type="line"/>
      <point x="262" y="639" type="line"/>
      <point x="394" y="695" type="line"/>
      <point x="394" y="731" type="line"/>
      <point x="262" y="675" type="line"/>
      <point x="131" y="731" type="line"/>
    </contour>
  </outline>
</glyph>
<glyph name="Tcaron.sc" format="1">
  <advance width="545"/>
  <outline>
    <contour>
      <point x="256" y="0" type="line"/>
      <point x="290" y="0" type="line"/>
      <point x="290" y="545" type="line"/>
      <point x="524" y="545" type="line"/>
      <point x="524" y="577" type="line"/>
      <point x="21" y="577" type="line"/>
      <point x="21" y="545" type="line"/>
      <point x="256" y="545" type="line"/>
    </contour>
    <contour>
      <point x="141" y="695" type="line"/>
      <point x="273" y="639" type="line"/>
      <point x="405" y="695" type="line"/>
      <point x="405" y="731" type="line"/>
      <point x="273" y="675" type="line"/>
      <point x="141" y="731" type="line"/>
    </contour>
  </outline>
</glyph>
<glyph name="Tdotbelow.sc" format="1">
  <advance width="545"/>
  <outline>
    <contour>
      <point x="256" y="0" type="line"/>
      <point x="290" y="0" type="line"/>
      <point x="290" y="545" type="line"/>
      <point x="524" y="545" type="line"/>
      <point x="524" y="577" type="line"/>
      <point x="21" y="577" type="line"/>
      <point x="21" y="545" type="line"/>
      <point x="256" y="545" type="line"/>
    </contour>
    <contour>
      <point x="273" y="-135" type="curve" smooth="yes"/>
      <point x="292" y="-135"/>
      <point x="307" y="-127"/>
      <point x="307" y="-104" type="curve" smooth="yes"/>
      <point x="307" y="-81"/>
      <point x="292" y="-72"/>
      <point x="273" y="-72" type="curve" smooth="yes"/>
      <point x="253" y="-72"/>
      <point x="240" y="-82"/>
      <point x="240" y="-104" type="curve" smooth="yes"/>
      <point x="240" y="-126"/>
      <point x="253" y="-135"/>
    </contour>
  </outline>
</glyph>
<glyph name="Udblgrave.sc" format="1">
  <advance width="676"/>
  <outline>
    <contour>
      <point x="338" y="-8" type="curve" smooth="yes"/>
      <point x="503" y="-8"/>
      <point x="583" y="60"/>
      <point x="583" y="233" type="curve" smooth="yes"/>
      <point x="583" y="577" type="line"/>
      <point x="549" y="577" type="line"/>
      <point x="549" y="238" type="line" smooth="yes"/>
      <point x="549" y="79"/>
      <point x="475" y="24"/>
      <point x="338" y="24" type="curve" smooth="yes"/>
      <point x="201" y="24"/>
      <point x="127" y="79"/>
      <point x="127" y="238" type="curve" smooth="yes"/>
      <point x="127" y="577" type="line"/>
      <point x="93" y="577" type="line"/>
      <point x="93" y="233" type="line" smooth="yes"/>
      <point x="93" y="60"/>
      <point x="173" y="-8"/>
    </contour>
    <contour>
      <point x="296" y="631" type="line"/>
      <point x="230" y="721" type="line"/>
      <point x="192" y="721" type="line"/>
      <point x="266" y="620" type="line"/>
    </contour>
    <contour>
      <point x="407" y="631" type="line"/>
      <point x="341" y="721" type="line"/>
      <point x="303" y="721" type="line"/>
      <point x="377" y="620" type="line"/>
    </contour>
  </outline>
</glyph>
<glyph name="Ugrave.sc" format="1">
  <advance width="676"/>
  <outline>
    <contour>
      <point x="338" y="-8" type="curve" smooth="yes"/>
      <point x="503" y="-8"/>
      <point x="583" y="60"/>
      <point x="583" y="233" type="curve" smooth="yes"/>
      <point x="583" y="577" type="line"/>
      <point x="549" y="577" type="line"/>
      <point x="549" y="238" type="line" smooth="yes"/>
      <point x="549" y="79"/>
      <point x="475" y="24"/>
      <point x="338" y="24" type="curve" smooth="yes"/>
      <point x="201" y="24"/>
      <point x="127" y="79"/>
      <point x="127" y="238" type="curve" smooth="yes"/>
      <point x="127" y="577" type="line"/>
      <point x="93" y="577" type="line"/>
      <point x="93" y="233" type="line" smooth="yes"/>
      <point x="93" y="60"/>
      <point x="173" y="-8"/>
    </contour>
    <contour>
      <point x="354" y="639" type="line"/>
      <point x="288" y="729" type="line"/>
      <point x="250" y="729" type="line"/>
      <point x="324" y="628" type="line"/>
    </contour>
  </outline>
</glyph>
<glyph name="Uhungarumlaut.sc" format="1">
  <advance width="676"/>
  <outline>
    <contour>
      <point x="338" y="-8" type="curve" smooth="yes"/>
      <point x="503" y="-8"/>
      <point x="583" y="60"/>
      <point x="583" y="233" type="curve" smooth="yes"/>
      <point x="583" y="577" type="line"/>
      <point x="549" y="577" type="line"/>
      <point x="549" y="238" type="line" smooth="yes"/>
      <point x="549" y="79"/>
      <point x="475" y="24"/>
      <point x="338" y="24" type="curve" smooth="yes"/>
      <point x="201" y="24"/>
      <point x="127" y="79"/>
      <point x="127" y="238" type="curve" smooth="yes"/>
      <point x="127" y="577" type="line"/>
      <point x="93" y="577" type="line"/>
      <point x="93" y="233" type="line" smooth="yes"/>
      <point x="93" y="60"/>
      <point x="173" y="-8"/>
    </contour>
    <contour>
      <point x="291" y="620" type="line"/>
      <point x="364" y="721" type="line"/>
      <point x="327" y="721" type="line"/>
      <point x="260" y="631" type="line"/>
    </contour>
    <contour>
      <point x="402" y="620" type="line"/>
      <point x="476" y="721" type="line"/>
      <point x="438" y="721" type="line"/>
      <point x="372" y="631" type="line"/>
    </contour>
  </outline>
</glyph>
<glyph name="Wdieresis.sc" format="1">
  <advance width="888"/>
  <outline>
    <contour>
      <point x="223" y="0" type="line"/>
      <point x="270" y="0" type="line"/>
      <point x="413" y="429" type="line"/>
      <point x="442" y="521" type="line"/>
      <point x="446" y="521" type="line"/>
      <point x="475" y="431" type="line"/>
      <point x="619" y="0" type="line"/>
      <point x="666" y="0" type="line"/>
      <point x="856" y="577" type="line"/>
      <point x="821" y="577" type="line"/>
      <point x="681" y="157" type="line"/>
      <point x="643" y="41" type="line"/>
      <point x="640" y="41" type="line"/>
      <point x="601" y="157" type="line"/>
      <point x="462" y="577" type="line"/>
      <point x="426" y="577" type="line"/>
      <point x="286" y="157" type="line"/>
      <point x="248" y="41" type="line"/>
      <point x="244" y="41" type="line"/>
      <point x="206" y="157" type="line"/>
      <point x="67" y="577" type="line"/>
      <point x="32" y="577" type="line"/>
    </contour>
    <contour>
      <point x="328" y="650" type="curve" smooth="yes"/>
      <point x="344" y="650"/>
      <point x="359" y="658"/>
      <point x="359" y="679" type="curve" smooth="yes"/>
      <point x="359" y="700"/>
      <point x="344" y="708"/>
      <point x="328" y="708" type="curve" smooth="yes"/>
      <point x="309" y="708"/>
      <point x="297" y="699"/>
      <point x="297" y="679" type="curve" smooth="yes"/>
      <point x="297" y="659"/>
      <point x="309" y="650"/>
    </contour>
    <contour>
      <point x="559" y="650" type="curve" smooth="yes"/>
      <point x="575" y="650"/>
      <point x="590" y="658"/>
      <point x="590" y="679" type="curve" smooth="yes"/>
      <point x="590" y="700"/>
      <point x="575" y="708"/>
      <point x="559" y="708" type="curve" smooth="yes"/>
      <point x="541" y="708"/>
      <point x="529" y="699"/>
      <point x="529" y="679" type="curve" smooth="yes"/>
      <point x="529" y="659"/>
      <point x="541" y="650"/>
    </contour>
  </outline>
</glyph>
<glyph name="Ygrave.sc" format="1">
  <advance width="548"/>
  <outline>
    <contour>
      <point x="257" y="0" type="line"/>
      <point x="291" y="0" type="line"/>
      <point x="291" y="200" type="line"/>
      <point x="529" y="577" type="line"/>
      <point x="490" y="577" type="line"/>
      <point x="302" y="282" type="line"/>
      <point x="276" y="236" type="line"/>
      <point x="272" y="236" type="line"/>
      <point x="245" y="282" type="line"/>
      <point x="58" y="577" type="line"/>
      <point x="19" y="577" type="line"/>
      <point x="257" y="200" type="line"/>
    </contour>
    <contour>
      <point x="262" y="628" type="line"/>
      <point x="293" y="639" type="line"/>
      <point x="226" y="729" type="line"/>
      <point x="188" y="729" type="line"/>
    </contour>
  </outline>
</glyph>
<glyph name="Zacute.sc" format="1">
  <advance width="519"/>
  <outline>
    <contour>
      <point x="41" y="0" type="line"/>
      <point x="476" y="0" type="line"/>
      <point x="476" y="32" type="line"/>
      <point x="86" y="32" type="line"/>
      <point x="86" y="35" type="line"/>
      <point x="469" y="550" type="line"/>
      <point x="469" y="577" type="line"/>
      <point x="53" y="577" type="line"/>
      <point x="53" y="545" type="line"/>
      <point x="425" y="545" type="line"/>
      <point x="425" y="542" type="line"/>
      <point x="41" y="29" type="line"/>
    </contour>
    <contour>
      <point x="276" y="628" type="line"/>
      <point x="350" y="729" type="line"/>
      <point x="312" y="729" type="line"/>
      <point x="245" y="633" type="line"/>
    </contour>
  </outline>
</glyph>
<glyph name=".notdef" format="1">
  <advance width="780"/>
  <outline>
    <contour>
      <point x="109" y="-220" type="line"/>
      <point x="670" y="-220" type="line"/>
      <point x="670" y="1030" type="line"/>
      <point x="109" y="1030" type="line"/>
    </contour>
    <contour>
      <point x="147" y="-182" type="line"/>
      <point x="147" y="993" type="line"/>
      <point x="632" y="993" type="line"/>
      <point x="632" y="-182" type="line"/>
    </contour>
  </outline>
</glyph>
<glyph name="acute.cap" format="1">
  <advance width="389"/>
  <outline>
    <contour>
      <point x="218" y="760" type="move" name="_topUC"/>
    </contour>
    <contour>
      <point x="227" y="804" type="line"/>
      <point x="312" y="930" type="line"/>
      <point x="274" y="930" type="line"/>
      <point x="195" y="810" type="line"/>
    </contour>
  </outline>
</glyph>
<glyph name="bracketleft.sc" format="1">
  <advance width="305"/>
  <outline>
    <contour>
      <point x="109" y="-125" type="line"/>
      <point x="252" y="-125" type="line"/>
      <point x="252" y="-94" type="line"/>
      <point x="142" y="-94" type="line"/>
      <point x="142" y="646" type="line"/>
      <point x="252" y="646" type="line"/>
      <point x="252" y="677" type="line"/>
      <point x="109" y="677" type="line"/>
    </contour>
  </outline>
</glyph>
<glyph name="currency.ss01" format="1">
  <advance width="648"/>
  <outline>
    <contour>
      <point x="230" y="-150" type="line"/>
      <point x="269" y="-150" type="line"/>
      <point x="269" y="10" type="line"/>
      <point x="230" y="8" type="line"/>
    </contour>
    <contour>
      <point x="230" y="727" type="line"/>
      <point x="269" y="731" type="line"/>
      <point x="269" y="890" type="line"/>
      <point x="230" y="890" type="line"/>
    </contour>
    <contour>
      <point x="383" y="-150" type="line"/>
      <point x="424" y="-150" type="line"/>
      <point x="424" y="10" type="line"/>
      <point x="383" y="8" type="line"/>
    </contour>
    <contour>
      <point x="383" y="727" type="line"/>
      <point x="424" y="731" type="line"/>
      <point x="424" y="890" type="line"/>
      <point x="383" y="890" type="line"/>
    </contour>
    <component base="B" xOffset="-3"/>
  </outline>
</glyph>
<glyph name="degree.tab" format="1">
  <advance width="540"/>
  <outline>
    <contour>
      <point x="269" y="380" type="curve" smooth="yes"/>
      <point x="374" y="380"/>
      <point x="459" y="461"/>
      <point x="459" y="561" type="curve" smooth="yes"/>
      <point x="459" y="661"/>
      <point x="374" y="742"/>
      <point x="269" y="742" type="curve" smooth="yes"/>
      <point x="165" y="742"/>
      <point x="80" y="661"/>
      <point x="80" y="561" type="curve" smooth="yes"/>
      <point x="80" y="461"/>
      <point x="165" y="380"/>
    </contour>
    <contour>
      <point x="269" y="414" type="curve" smooth="yes"/>
      <point x="183" y="414"/>
      <point x="115" y="479"/>
      <point x="115" y="561" type="curve" smooth="yes"/>
      <point x="115" y="643"/>
      <point x="183" y="708"/>
      <point x="269" y="708" type="curve" smooth="yes"/>
      <point x="356" y="708"/>
      <point x="424" y="643"/>
      <point x="424" y="561" type="curve" smooth="yes"/>
      <point x="424" y="479"/>
      <point x="356" y="414"/>
    </contour>
  </outline>
</glyph>
<glyph name="eight.numerator" format="1">
  <advance width="471"/>
  <outline>
    <contour>
      <point x="235" y="197" type="curve" smooth="yes"/>
      <point x="343" y="197"/>
      <point x="419" y="247"/>
      <point x="419" y="340" type="curve" smooth="yes"/>
      <point x="419" y="415"/>
      <point x="369" y="450"/>
      <point x="309" y="473" type="curve"/>
      <point x="347" y="494"/>
      <point x="397" y="536"/>
      <point x="397" y="615" type="curve" smooth="yes"/>
      <point x="397" y="712"/>
      <point x="328" y="754"/>
      <point x="235" y="754" type="curve" smooth="yes"/>
      <point x="141" y="754"/>
      <point x="71" y="711"/>
      <point x="71" y="615" type="curve" smooth="yes"/>
      <point x="71" y="550"/>
      <point x="105" y="515"/>
      <point x="150" y="492" type="curve"/>
      <point x="109" y="473"/>
      <point x="54" y="430"/>
      <point x="54" y="344" type="curve" smooth="yes"/>
      <point x="54" y="242"/>
      <point x="126" y="197"/>
    </contour>
    <contour>
      <point x="235" y="231" type="curve" smooth="yes"/>
      <point x="146" y="231"/>
      <point x="88" y="266"/>
      <point x="88" y="344" type="curve" smooth="yes"/>
      <point x="88" y="436"/>
      <point x="168" y="467"/>
      <point x="193" y="475" type="curve"/>
      <point x="209" y="469"/>
      <point x="225" y="464"/>
      <point x="241" y="459" type="curve" smooth="yes"/>
      <point x="313" y="438"/>
      <point x="385" y="417"/>
      <point x="385" y="340" type="curve" smooth="yes"/>
      <point x="385" y="269"/>
      <point x="323" y="231"/>
    </contour>
    <contour>
      <point x="267" y="487" type="curve"/>
      <point x="262" y="488"/>
      <point x="257" y="490"/>
      <point x="251" y="492" type="curve" smooth="yes"/>
      <point x="179" y="514"/>
      <point x="105" y="535"/>
      <point x="105" y="615" type="curve" smooth="yes"/>
      <point x="105" y="687"/>
      <point x="161" y="720"/>
      <point x="235" y="720" type="curve" smooth="yes"/>
      <point x="308" y="720"/>
      <point x="363" y="688"/>
      <point x="363" y="615" type="curve" smooth="yes"/>
      <point x="363" y="532"/>
      <point x="292" y="497"/>
    </contour>
  </outline>
</glyph>
<glyph name="eight.osf" format="1">
  <advance width="612"/>
  <outline>
    <contour>
      <point x="305" y="-4" type="curve" smooth="yes"/>
      <point x="458" y="-4"/>
      <point x="552" y="62"/>
      <point x="552" y="171" type="curve" smooth="yes"/>
      <point x="552" y="262"/>
      <point x="489" y="315"/>
      <point x="326" y="361" type="curve" smooth="yes"/>
      <point x="224" y="389"/>
      <point x="120" y="415"/>
      <point x="120" y="520" type="curve" smooth="yes"/>
      <point x="120" y="606"/>
      <point x="188" y="656"/>
      <point x="305" y="656" type="curve" smooth="yes"/>
      <point x="423" y="656"/>
      <point x="488" y="607"/>
      <point x="488" y="519" type="curve" smooth="yes"/>
      <point x="488" y="445"/>
      <point x="420" y="366"/>
      <point x="341" y="349" type="curve"/>
      <point x="354" y="324" type="line"/>
      <point x="448" y="346"/>
      <point x="522" y="432"/>
      <point x="522" y="519" type="curve" smooth="yes"/>
      <point x="522" y="628"/>
      <point x="444" y="690"/>
      <point x="305" y="690" type="curve" smooth="yes"/>
      <point x="167" y="690"/>
      <point x="86" y="627"/>
      <point x="86" y="520" type="curve" smooth="yes"/>
      <point x="86" y="424"/>
      <point x="143" y="375"/>
      <point x="316" y="328" type="curve" smooth="yes"/>
      <point x="467" y="287"/>
      <point x="518" y="248"/>
      <point x="518" y="171" type="curve" smooth="yes"/>
      <point x="518" y="82"/>
      <point x="439" y="30"/>
      <point x="305" y="30" type="curve" smooth="yes"/>
      <point x="168" y="30"/>
      <point x="96" y="80"/>
      <point x="96" y="176" type="curve" smooth="yes"/>
      <point x="96" y="257"/>
      <point x="164" y="331"/>
      <point x="255" y="349" type="curve"/>
      <point x="244" y="377" type="line"/>
      <point x="141" y="359"/>
      <point x="62" y="272"/>
      <point x="62" y="176" type="curve" smooth="yes"/>
      <point x="62" y="59"/>
      <point x="147" y="-4"/>
    </contour>
  </outline>
</glyph>
<glyph name="eight.tf" format="1">
  <advance width="540"/>
  <outline>
    <contour>
      <point x="266" y="-4" type="curve" smooth="yes"/>
      <point x="406" y="-4"/>
      <point x="498" y="62"/>
      <point x="498" y="185" type="curve" smooth="yes"/>
      <point x="498" y="287"/>
      <point x="435" y="334"/>
      <point x="351" y="367" type="curve"/>
      <point x="397" y="391"/>
      <point x="470" y="447"/>
      <point x="470" y="566" type="curve" smooth="yes"/>
      <point x="470" y="694"/>
      <point x="385" y="750"/>
      <point x="269" y="750" type="curve" smooth="yes"/>
      <point x="152" y="750"/>
      <point x="65" y="693"/>
      <point x="65" y="566" type="curve" smooth="yes"/>
      <point x="65" y="474"/>
      <point x="111" y="428"/>
      <point x="173" y="397" type="curve"/>
      <point x="123" y="375"/>
      <point x="43" y="320"/>
      <point x="43" y="192" type="curve" smooth="yes"/>
      <point x="43" y="55"/>
      <point x="133" y="-4"/>
    </contour>
    <contour>
      <point x="266" y="30" type="curve" smooth="yes"/>
      <point x="153" y="30"/>
      <point x="76" y="79"/>
      <point x="76" y="193" type="curve" smooth="yes"/>
      <point x="76" y="333"/>
      <point x="193" y="373"/>
      <point x="213" y="379" type="curve"/>
      <point x="317" y="340"/>
      <point x="464" y="322"/>
      <point x="464" y="185" type="curve" smooth="yes"/>
      <point x="464" y="85"/>
      <point x="386" y="30"/>
    </contour>
    <contour>
      <point x="270" y="716" type="curve" smooth="yes"/>
      <point x="365" y="716"/>
      <point x="437" y="671"/>
      <point x="437" y="565" type="curve" smooth="yes"/>
      <point x="437" y="438"/>
      <point x="334" y="390"/>
      <point x="311" y="381" type="curve"/>
      <point x="214" y="415"/>
      <point x="99" y="441"/>
      <point x="99" y="568" type="curve" smooth="yes"/>
      <point x="99" y="669"/>
      <point x="172" y="716"/>
    </contour>
  </outline>
</glyph>
<glyph name="five.numerator" format="1">
  <advance width="411"/>
  <outline>
    <contour>
      <point x="163" y="193" type="curve" smooth="yes"/>
      <point x="295" y="193"/>
      <point x="364" y="242"/>
      <point x="364" y="359" type="curve" smooth="yes"/>
      <point x="364" y="472"/>
      <point x="286" y="512"/>
      <point x="104" y="515" type="curve"/>
      <point x="118" y="712" type="line"/>
      <point x="343" y="712" type="line"/>
      <point x="343" y="746" type="line"/>
      <point x="87" y="746" type="line"/>
      <point x="67" y="488" type="line"/>
      <point x="73" y="483" type="line"/>
      <point x="135" y="481" type="line"/>
      <point x="267" y="478"/>
      <point x="330" y="445"/>
      <point x="330" y="359" type="curve" smooth="yes"/>
      <point x="330" y="263"/>
      <point x="274" y="227"/>
      <point x="162" y="227" type="curve" smooth="yes"/>
      <point x="129" y="227"/>
      <point x="94" y="231"/>
      <point x="58" y="238" type="curve"/>
      <point x="50" y="238" type="line"/>
      <point x="50" y="204" type="line"/>
      <point x="88" y="197"/>
      <point x="129" y="193"/>
    </contour>
  </outline>
</glyph>
<glyph name="five.osf" format="1">
  <advance width="519"/>
  <outline>
    <contour>
      <point x="200" y="-166" type="curve" smooth="yes"/>
      <point x="378" y="-166"/>
      <point x="471" y="-101"/>
      <point x="471" y="57" type="curve" smooth="yes"/>
      <point x="471" y="213"/>
      <point x="360" y="265"/>
      <point x="101" y="265" type="curve"/>
      <point x="111" y="239" type="line"/>
      <point x="133" y="562" type="line"/>
      <point x="114" y="550" type="line"/>
      <point x="442" y="550" type="line"/>
      <point x="442" y="584" type="line"/>
      <point x="101" y="584" type="line"/>
      <point x="75" y="237" type="line"/>
      <point x="79" y="233" type="line"/>
      <point x="162" y="231" type="line" smooth="yes"/>
      <point x="348" y="227"/>
      <point x="437" y="180"/>
      <point x="437" y="57" type="curve" smooth="yes"/>
      <point x="437" y="-81"/>
      <point x="358" y="-132"/>
      <point x="199" y="-132" type="curve" smooth="yes"/>
      <point x="153" y="-132"/>
      <point x="104" y="-127"/>
      <point x="55" y="-117" type="curve"/>
      <point x="51" y="-117" type="line"/>
      <point x="51" y="-152" type="line"/>
      <point x="100" y="-161"/>
      <point x="154" y="-166"/>
    </contour>
  </outline>
</glyph>
<glyph name="four.tosf" format="1">
  <advance width="540"/>
  <outline>
    <contour>
      <point x="29" y="33" type="line"/>
      <point x="370" y="33" type="line"/>
      <point x="370" y="-160" type="line"/>
      <point x="404" y="-160" type="line"/>
      <point x="404" y="33" type="line"/>
      <point x="521" y="33" type="line"/>
      <point x="521" y="67" type="line"/>
      <point x="404" y="67" type="line"/>
      <point x="404" y="341" type="line"/>
      <point x="383" y="341" type="line"/>
      <point x="370" y="97" type="line"/>
      <point x="370" y="67" type="line"/>
      <point x="58" y="67" type="line"/>
      <point x="58" y="71" type="line"/>
      <point x="277" y="576" type="line"/>
      <point x="276" y="580" type="line"/>
      <point x="254" y="590" type="line"/>
      <point x="250" y="590" type="line"/>
      <point x="13" y="55" type="line"/>
      <point x="13" y="51" type="line"/>
    </contour>
  </outline>
</glyph>
<glyph name="grave.cap" format="1">
  <advance width="389"/>
  <outline>
    <contour>
      <point x="173" y="760" type="move" name="_topUC"/>
    </contour>
    <contour>
      <point x="193" y="818" type="line"/>
      <point x="114" y="930" type="line"/>
      <point x="76" y="930" type="line"/>
      <point x="161" y="804" type="line"/>
    </contour>
  </outline>
</glyph>
<glyph name="less.tab" format="1">
  <advance width="540"/>
  <outline>
    <contour>
      <point x="454" y="188" type="line"/>
      <point x="454" y="226" type="line"/>
      <point x="106" y="367" type="line"/>
      <point x="457" y="508" type="line"/>
      <point x="457" y="546" type="line"/>
      <point x="56" y="382" type="line"/>
      <point x="56" y="352" type="line"/>
    </contour>
  </outline>
</glyph>
<glyph name="macron.cap" format="1">
  <advance width="458"/>
  <outline>
    <contour>
      <point x="229" y="760" type="move" name="_topUC"/>
    </contour>
    <contour>
      <point x="80" y="842" type="line"/>
      <point x="378" y="842" type="line"/>
      <point x="378" y="876" type="line"/>
      <point x="80" y="876" type="line"/>
    </contour>
  </outline>
</glyph>
<glyph name="one.osf" format="1">
  <advance width="376"/>
  <outline>
    <contour>
      <point x="245" y="0" type="line"/>
      <point x="279" y="0" type="line"/>
      <point x="279" y="583" type="line"/>
      <point x="252" y="583" type="line"/>
      <point x="35" y="454" type="line"/>
      <point x="35" y="450" type="line"/>
      <point x="40" y="428" type="line"/>
      <point x="47" y="428" type="line"/>
      <point x="241" y="535" type="line"/>
      <point x="245" y="535" type="line"/>
    </contour>
  </outline>
</glyph>
<glyph name="parenleft.sc" format="1">
  <advance width="278"/>
  <outline>
    <contour>
      <point x="199" y="-125" type="curve"/>
      <point x="233" y="-125" type="line"/>
      <point x="233" y="-122" type="line"/>
      <point x="145" y="-10"/>
      <point x="98" y="128"/>
      <point x="98" y="276" type="curve" smooth="yes"/>
      <point x="98" y="423"/>
      <point x="145" y="562"/>
      <point x="233" y="674" type="curve"/>
      <point x="233" y="677" type="line"/>
      <point x="199" y="677" type="line"/>
      <point x="113" y="563"/>
      <point x="65" y="422"/>
      <point x="65" y="276" type="curve" smooth="yes"/>
      <point x="65" y="130"/>
      <point x="113" y="-11"/>
    </contour>
  </outline>
</glyph>
<glyph name="parenright.sc" format="1">
  <advance width="278"/>
  <outline>
    <contour>
      <point x="78" y="-125" type="line"/>
      <point x="165" y="-11"/>
      <point x="213" y="130"/>
      <point x="213" y="276" type="curve" smooth="yes"/>
      <point x="213" y="422"/>
      <point x="165" y="563"/>
      <point x="78" y="677" type="curve"/>
      <point x="45" y="677" type="line"/>
      <point x="45" y="674" type="line"/>
      <point x="133" y="562"/>
      <point x="180" y="423"/>
      <point x="180" y="276" type="curve" smooth="yes"/>
      <point x="180" y="128"/>
      <point x="133" y="-10"/>
      <point x="45" y="-122" type="curve"/>
      <point x="45" y="-125" type="line"/>
    </contour>
  </outline>
</glyph>
<glyph name="percent.tab" format="1">
  <advance width="540"/>
  <note>
    450
  </note>
  <outline>
    <contour>
      <point x="82" y="277" type="curve" smooth="yes"/>
      <point x="166" y="277"/>
      <point x="210" y="358"/>
      <point x="210" y="514" type="curve" smooth="yes"/>
      <point x="210" y="669"/>
      <point x="166" y="750"/>
      <point x="82" y="750" type="curve" smooth="yes"/>
      <point x="-2" y="750"/>
      <point x="-45" y="669"/>
      <point x="-45" y="514" type="curve" smooth="yes"/>
      <point x="-45" y="358"/>
      <point x="-2" y="277"/>
    </contour>
    <contour>
      <point x="82" y="311" type="curve" smooth="yes"/>
      <point x="18" y="311"/>
      <point x="-15" y="382"/>
      <point x="-15" y="514" type="curve" smooth="yes"/>
      <point x="-15" y="646"/>
      <point x="18" y="716"/>
      <point x="82" y="716" type="curve" smooth="yes"/>
      <point x="146" y="716"/>
      <point x="179" y="646"/>
      <point x="179" y="514" type="curve" smooth="yes"/>
      <point x="179" y="382"/>
      <point x="146" y="311"/>
    </contour>
    <contour>
      <point x="458" y="-10" type="curve" smooth="yes"/>
      <point x="542" y="-10"/>
      <point x="585" y="71"/>
      <point x="585" y="227" type="curve" smooth="yes"/>
      <point x="585" y="382"/>
      <point x="542" y="463"/>
      <point x="458" y="463" type="curve" smooth="yes"/>
      <point x="374" y="463"/>
      <point x="330" y="382"/>
      <point x="330" y="227" type="curve" smooth="yes"/>
      <point x="330" y="71"/>
      <point x="374" y="-10"/>
    </contour>
    <contour>
      <point x="458" y="24" type="curve" smooth="yes"/>
      <point x="394" y="24"/>
      <point x="361" y="95"/>
      <point x="361" y="227" type="curve" smooth="yes"/>
      <point x="361" y="359"/>
      <point x="394" y="429"/>
      <point x="458" y="429" type="curve" smooth="yes"/>
      <point x="522" y="429"/>
      <point x="555" y="359"/>
      <point x="555" y="227" type="curve" smooth="yes"/>
      <point x="555" y="95"/>
      <point x="522" y="24"/>
    </contour>
    <contour>
      <point x="114" y="0" type="line"/>
      <point x="149" y="0" type="line"/>
      <point x="427" y="740" type="line"/>
      <point x="393" y="740" type="line"/>
    </contour>
  </outline>
</glyph>
<glyph name="seven.tosf" format="1">
  <advance width="540"/>
  <outline>
    <contour>
      <point x="185" y="-165" type="line"/>
      <point x="158" y="-156" type="line"/>
      <point x="158" y="-145" type="line"/>
      <point x="470" y="550" type="line"/>
      <point x="43" y="550" type="line"/>
      <point x="38" y="580" type="line"/>
      <point x="38" y="584" type="line"/>
      <point x="490" y="584" type="line"/>
      <point x="503" y="566" type="line"/>
      <point x="503" y="537" type="line"/>
      <point x="197" y="-158" type="line"/>
    </contour>
  </outline>
</glyph>
<glyph name="six.numerator" format="1">
  <advance width="472"/>
  <outline>
    <contour>
      <point x="249" y="192" type="curve" smooth="yes"/>
      <point x="356" y="192"/>
      <point x="428" y="265"/>
      <point x="428" y="373" type="curve" smooth="yes"/>
      <point x="428" y="472"/>
      <point x="359" y="532"/>
      <point x="248" y="532" type="curve" smooth="yes"/>
      <point x="199" y="532"/>
      <point x="140" y="511"/>
      <point x="90" y="476" type="curve"/>
      <point x="101" y="629"/>
      <point x="176" y="721"/>
      <point x="296" y="721" type="curve" smooth="yes"/>
      <point x="326" y="721"/>
      <point x="353" y="717"/>
      <point x="391" y="707" type="curve"/>
      <point x="391" y="742" type="line"/>
      <point x="355" y="751"/>
      <point x="326" y="755"/>
      <point x="296" y="755" type="curve" smooth="yes"/>
      <point x="144" y="755"/>
      <point x="55" y="638"/>
      <point x="55" y="440" type="curve" smooth="yes"/>
      <point x="55" y="275"/>
      <point x="121" y="192"/>
    </contour>
    <contour>
      <point x="249" y="226" type="curve" smooth="yes"/>
      <point x="143" y="226"/>
      <point x="91" y="294"/>
      <point x="89" y="435" type="curve"/>
      <point x="136" y="474"/>
      <point x="198" y="498"/>
      <point x="248" y="498" type="curve" smooth="yes"/>
      <point x="339" y="498"/>
      <point x="393" y="452"/>
      <point x="393" y="373" type="curve" smooth="yes"/>
      <point x="393" y="285"/>
      <point x="336" y="226"/>
    </contour>
  </outline>
</glyph>
<glyph name="six.tf" format="1">
  <advance width="540"/>
  <outline>
    <contour>
      <point x="286" y="-12" type="curve" smooth="yes"/>
      <point x="419" y="-12"/>
      <point x="509" y="86"/>
      <point x="509" y="232" type="curve" smooth="yes"/>
      <point x="509" y="364"/>
      <point x="423" y="445"/>
      <point x="286" y="445" type="curve" smooth="yes"/>
      <point x="219" y="445"/>
      <point x="141" y="411"/>
      <point x="80" y="359" type="curve"/>
      <point x="90" y="582"/>
      <point x="189" y="718"/>
      <point x="347" y="718" type="curve" smooth="yes"/>
      <point x="386" y="718"/>
      <point x="418" y="713"/>
      <point x="462" y="700" type="curve"/>
      <point x="462" y="736" type="line"/>
      <point x="420" y="747"/>
      <point x="384" y="752"/>
      <point x="347" y="752" type="curve" smooth="yes"/>
      <point x="156" y="752"/>
      <point x="45" y="593"/>
      <point x="45" y="324" type="curve" smooth="yes"/>
      <point x="45" y="101"/>
      <point x="127" y="-12"/>
    </contour>
    <contour>
      <point x="285" y="411" type="curve" smooth="yes"/>
      <point x="403" y="411"/>
      <point x="474" y="344"/>
      <point x="474" y="232" type="curve" smooth="yes"/>
      <point x="474" y="106"/>
      <point x="400" y="22"/>
      <point x="286" y="22" type="curve" smooth="yes"/>
      <point x="148" y="22"/>
      <point x="79" y="119"/>
      <point x="79" y="321" type="curve"/>
      <point x="138" y="376"/>
      <point x="219" y="411"/>
    </contour>
  </outline>
</glyph>
<glyph name="three.numerator" format="1">
  <advance width="401"/>
  <outline>
    <contour>
      <point x="157" y="193" type="curve" smooth="yes"/>
      <point x="280" y="193"/>
      <point x="347" y="249"/>
      <point x="347" y="351" type="curve" smooth="yes"/>
      <point x="347" y="418"/>
      <point x="315" y="464"/>
      <point x="257" y="480" type="curve"/>
      <point x="305" y="499"/>
      <point x="332" y="542"/>
      <point x="332" y="602" type="curve" smooth="yes"/>
      <point x="332" y="698"/>
      <point x="270" y="754"/>
      <point x="162" y="754" type="curve" smooth="yes"/>
      <point x="124" y="754"/>
      <point x="88" y="750"/>
      <point x="54" y="742" type="curve"/>
      <point x="54" y="710" type="line"/>
      <point x="62" y="710" type="line"/>
      <point x="105" y="716"/>
      <point x="141" y="720"/>
      <point x="163" y="720" type="curve" smooth="yes"/>
      <point x="251" y="720"/>
      <point x="297" y="680"/>
      <point x="297" y="605" type="curve" smooth="yes"/>
      <point x="297" y="533"/>
      <point x="255" y="494"/>
      <point x="178" y="494" type="curve" smooth="yes"/>
      <point x="115" y="494" type="line"/>
      <point x="115" y="460" type="line"/>
      <point x="179" y="460" type="line" smooth="yes"/>
      <point x="265" y="460"/>
      <point x="312" y="423"/>
      <point x="312" y="354" type="curve" smooth="yes"/>
      <point x="312" y="273"/>
      <point x="255" y="227"/>
      <point x="157" y="227" type="curve" smooth="yes"/>
      <point x="130" y="227"/>
      <point x="86" y="231"/>
      <point x="62" y="236" type="curve"/>
      <point x="54" y="236" type="line"/>
      <point x="54" y="204" type="line"/>
      <point x="92" y="197"/>
      <point x="127" y="193"/>
    </contour>
  </outline>
</glyph>
<glyph name="three.tosf" format="1">
  <advance width="540"/>
  <outline>
    <contour>
      <point x="207" y="-169" type="curve" smooth="yes"/>
      <point x="382" y="-169"/>
      <point x="477" y="-94"/>
      <point x="477" y="43" type="curve" smooth="yes"/>
      <point x="477" y="137"/>
      <point x="426" y="200"/>
      <point x="336" y="217" type="curve"/>
      <point x="336" y="221" type="line"/>
      <point x="413" y="243"/>
      <point x="456" y="303"/>
      <point x="456" y="389" type="curve" smooth="yes"/>
      <point x="456" y="517"/>
      <point x="367" y="591"/>
      <point x="215" y="591" type="curve" smooth="yes"/>
      <point x="159" y="591"/>
      <point x="109" y="586"/>
      <point x="64" y="576" type="curve"/>
      <point x="64" y="544" type="line"/>
      <point x="68" y="544" type="line"/>
      <point x="132" y="552"/>
      <point x="184" y="557"/>
      <point x="216" y="557" type="curve" smooth="yes"/>
      <point x="349" y="557"/>
      <point x="420" y="500"/>
      <point x="420" y="392" type="curve" smooth="yes"/>
      <point x="420" y="289"/>
      <point x="356" y="233"/>
      <point x="240" y="233" type="curve" smooth="yes"/>
      <point x="153" y="233" type="line"/>
      <point x="153" y="199" type="line"/>
      <point x="240" y="199" type="line" smooth="yes"/>
      <point x="371" y="199"/>
      <point x="441" y="146"/>
      <point x="441" y="46" type="curve" smooth="yes"/>
      <point x="441" y="-69"/>
      <point x="356" y="-135"/>
      <point x="208" y="-135" type="curve" smooth="yes"/>
      <point x="168" y="-135"/>
      <point x="102" y="-129"/>
      <point x="68" y="-122" type="curve"/>
      <point x="64" y="-122" type="line"/>
      <point x="64" y="-155" type="line"/>
      <point x="115" y="-164"/>
      <point x="163" y="-169"/>
    </contour>
  </outline>
</glyph>
<glyph name="tilde.cap" format="1">
  <advance width="469"/>
  <outline>
    <contour>
      <point x="235" y="760" type="move" name="_topUC"/>
    </contour>
    <contour>
      <point x="75" y="844" type="line"/>
      <point x="105" y="870"/>
      <point x="136" y="881"/>
      <point x="167" y="881" type="curve" smooth="yes"/>
      <point x="218" y="881"/>
      <point x="270" y="838"/>
      <point x="324" y="838" type="curve" smooth="yes"/>
      <point x="369" y="838"/>
      <point x="412" y="856"/>
      <point x="446" y="885" type="curve"/>
      <point x="422" y="909" type="line"/>
      <point x="392" y="884"/>
      <point x="359" y="871"/>
      <point x="325" y="871" type="curve" smooth="yes"/>
      <point x="267" y="871"/>
      <point x="228" y="914"/>
      <point x="164" y="914" type="curve" smooth="yes"/>
      <point x="125" y="914"/>
      <point x="88" y="900"/>
      <point x="51" y="868" type="curve"/>
    </contour>
  </outline>
</glyph>
<glyph name="two.denominator" format="1">
  <advance width="420"/>
  <outline>
    <contour>
      <point x="49" y="3" type="line"/>
      <point x="368" y="3" type="line"/>
      <point x="368" y="36" type="line"/>
      <point x="83" y="36" type="line"/>
      <point x="83" y="75" type="line" smooth="yes"/>
      <point x="83" y="145"/>
      <point x="119" y="187"/>
      <point x="225" y="245" type="curve" smooth="yes"/>
      <point x="331" y="303"/>
      <point x="364" y="343"/>
      <point x="364" y="411" type="curve" smooth="yes"/>
      <point x="364" y="504"/>
      <point x="312" y="551"/>
      <point x="210" y="551" type="curve" smooth="yes"/>
      <point x="164" y="551"/>
      <point x="117" y="544"/>
      <point x="65" y="531" type="curve"/>
      <point x="72" y="498" type="line"/>
      <point x="126" y="511"/>
      <point x="171" y="517"/>
      <point x="210" y="517" type="curve" smooth="yes"/>
      <point x="290" y="517"/>
      <point x="330" y="482"/>
      <point x="330" y="411" type="curve" smooth="yes"/>
      <point x="330" y="359"/>
      <point x="298" y="324"/>
      <point x="208" y="275" type="curve" smooth="yes"/>
      <point x="91" y="211"/>
      <point x="49" y="158"/>
      <point x="49" y="75" type="curve" smooth="yes"/>
    </contour>
  </outline>
</glyph>
<glyph name="uni0162.sc" format="1">
  <advance width="545"/>
  <outline>
    <contour>
      <point x="221" y="-172" type="curve" smooth="yes"/>
      <point x="286" y="-172"/>
      <point x="321" y="-139"/>
      <point x="321" y="-80" type="curve" smooth="yes"/>
      <point x="321" y="-59"/>
      <point x="312" y="-44"/>
      <point x="288" y="0" type="curve"/>
      <point x="290" y="0" type="line"/>
      <point x="290" y="545" type="line"/>
      <point x="524" y="545" type="line"/>
      <point x="524" y="577" type="line"/>
      <point x="21" y="577" type="line"/>
      <point x="21" y="545" type="line"/>
      <point x="256" y="545" type="line"/>
      <point x="256" y="0" type="line"/>
      <point x="258" y="0" type="line"/>
      <point x="283" y="-43"/>
      <point x="286" y="-56"/>
      <point x="286" y="-74" type="curve" smooth="yes"/>
      <point x="286" y="-122"/>
      <point x="266" y="-140"/>
      <point x="206" y="-140" type="curve" smooth="yes"/>
      <point x="181" y="-140"/>
      <point x="165" y="-138"/>
      <point x="148" y="-132" type="curve"/>
      <point x="148" y="-162" type="line"/>
      <point x="174" y="-169"/>
      <point x="202" y="-172"/>
    </contour>
  </outline>
</glyph>
<glyph name="uni030F.cap" format="1">
  <advance width="574"/>
  <outline>
    <contour>
      <point x="282" y="760" type="move" name="_topUC"/>
    </contour>
    <contour>
      <point x="236" y="808" type="line"/>
      <point x="157" y="920" type="line"/>
      <point x="119" y="920" type="line"/>
      <point x="204" y="794" type="line"/>
    </contour>
    <contour>
      <point x="363" y="808" type="line"/>
      <point x="284" y="920" type="line"/>
      <point x="246" y="920" type="line"/>
      <point x="331" y="794" type="line"/>
    </contour>
  </outline>
</glyph>
<glyph name="uni0311.cap" format="1">
  <advance width="454"/>
  <outline>
    <contour>
      <point x="227" y="760" type="move" name="_topUC"/>
    </contour>
    <contour>
      <point x="391" y="816" type="line"/>
      <point x="391" y="898"/>
      <point x="328" y="948"/>
      <point x="226" y="948" type="curve" smooth="yes"/>
      <point x="124" y="948"/>
      <point x="61" y="898"/>
      <point x="61" y="816" type="curve"/>
      <point x="95" y="816" type="line"/>
      <point x="95" y="877"/>
      <point x="145" y="914"/>
      <point x="226" y="914" type="curve" smooth="yes"/>
      <point x="307" y="914"/>
      <point x="357" y="877"/>
      <point x="357" y="816" type="curve"/>
    </contour>
  </outline>
</glyph>
<glyph name="yen.tab" format="1">
  <advance width="540"/>
  <outline>
    <contour>
      <point x="45" y="247" type="line"/>
      <point x="258" y="247" type="line"/>
      <point x="258" y="150" type="line"/>
      <point x="45" y="150" type="line"/>
      <point x="45" y="118" type="line"/>
      <point x="258" y="118" type="line"/>
      <point x="258" y="0" type="line"/>
      <point x="292" y="0" type="line"/>
      <point x="292" y="118" type="line"/>
      <point x="466" y="118" type="line"/>
      <point x="466" y="150" type="line"/>
      <point x="292" y="150" type="line"/>
      <point x="292" y="247" type="line"/>
      <point x="466" y="247" type="line"/>
      <point x="466" y="279" type="line"/>
      <point x="304" y="279" type="line"/>
      <point x="552" y="740" type="line"/>
      <point x="513" y="740" type="line"/>
      <point x="277" y="295" type="line"/>
      <point x="273" y="295" type="line"/>
      <point x="37" y="740" type="line"/>
      <point x="-2" y="740" type="line"/>
      <point x="246" y="279" type="line"/>
      <point x="45" y="279" type="line"/>
    </contour>
  </outline>
</glyph>
<glyph name="zero.tf" format="1">
  <advance width="540"/>
  <note>
    600
  </note>
  <outline>
    <contour>
      <point x="270" y="-12" type="curve" smooth="yes"/>
      <point x="425" y="-12"/>
      <point x="506" y="119"/>
      <point x="506" y="369" type="curve" smooth="yes"/>
      <point x="506" y="619"/>
      <point x="425" y="750"/>
      <point x="270" y="750" type="curve" smooth="yes"/>
      <point x="115" y="750"/>
      <point x="34" y="619"/>
      <point x="34" y="369" type="curve" smooth="yes"/>
      <point x="34" y="119"/>
      <point x="115" y="-12"/>
    </contour>
    <contour>
      <point x="270" y="22" type="curve" smooth="yes"/>
      <point x="137" y="22"/>
      <point x="68" y="143"/>
      <point x="68" y="369" type="curve" smooth="yes"/>
      <point x="68" y="595"/>
      <point x="137" y="716"/>
      <point x="270" y="716" type="curve" smooth="yes"/>
      <point x="402" y="716"/>
      <point x="472" y="595"/>
      <point x="472" y="369" type="curve" smooth="yes"/>
      <point x="472" y="143"/>
      <point x="402" y="22"/>
    </contour>
  </outline>
</glyph>
